<?xml version="1.0" standalone="no"?>
<!DOCTYPE svg PUBLIC "-//W3C//DTD SVG 20010904//EN"
 "http://www.w3.org/TR/2001/REC-SVG-20010904/DTD/svg10.dtd">
<svg version="1.0" xmlns="http://www.w3.org/2000/svg"
 width="5500.000000pt" height="3667.000000pt" viewBox="0 0 5500.000000 3667.000000"
 preserveAspectRatio="xMidYMid meet">

<g transform="translate(0.000000,3667.000000) scale(0.100000,-0.100000)"
fill="#000000" stroke="none">
<path d="M0 20076 l0 -16595 128 53 c70 29 217 90 326 136 223 93 232 94 230
19 -1 -24 -2 -97 -3 -161 l-3 -117 -331 -141 c-183 -78 -336 -146 -341 -150
-4 -5 -7 -13 -5 -19 3 -7 36 4 87 29 120 58 562 233 570 226 3 -4 1 -20 -5
-36 -6 -17 -7 -30 -2 -30 13 0 11 -34 -3 -65 -8 -18 -24 -29 -55 -38 -24 -6
-42 -16 -40 -22 6 -17 -16 -32 -58 -39 -59 -10 -76 -17 -70 -25 8 -14 -40 -30
-137 -46 -51 -8 -107 -17 -125 -20 -25 -4 -31 -10 -26 -22 4 -10 2 -14 -4 -10
-6 4 -19 0 -27 -9 -9 -8 -16 -11 -16 -5 0 15 -26 3 -60 -27 l-30 -26 0 -1468
0 -1468 12798 4 c7038 2 12804 4 12812 5 8 0 53 -2 100 -4 79 -5 83 -4 60 9
-27 17 -54 22 -30 6 8 -5 10 -10 4 -10 -6 0 -17 7 -24 15 -10 13 -9 15 9 15
12 0 19 5 16 10 -3 6 -2 10 4 10 5 0 11 -4 13 -9 2 -5 20 -3 42 4 46 16 71 36
35 29 l-24 -5 25 12 c14 7 28 11 33 11 4 -1 7 2 7 8 0 5 -4 10 -10 10 -5 0
-10 7 -10 15 0 8 8 15 18 15 11 0 27 9 36 19 21 23 10 32 -49 42 -32 5 -24 7
38 8 43 0 87 6 98 11 17 10 19 7 19 -23 0 -19 -3 -55 -6 -81 l-7 -46 -71 -1
c-78 -1 -72 -7 14 -11 l55 -3 -3 -33 -3 -32 1568 1 c862 0 1592 4 1621 8 31 4
55 4 59 -2 3 -5 9 -3 14 4 6 10 9 11 9 2 0 -10 2580 -13 12865 -13 l12865 0 0
1469 0 1470 -32 16 c-56 28 -156 64 -162 58 -3 -4 -6 -1 -6 5 0 7 -8 12 -19
12 -10 0 -30 9 -44 20 -14 11 -31 20 -39 20 -7 0 -22 6 -33 14 -11 7 -63 28
-115 46 -95 33 -165 74 -154 91 3 5 1 9 -5 9 -6 0 -17 13 -26 29 -15 30 -30
101 -21 101 20 0 421 -166 605 -251 45 -20 57 -20 48 3 -2 7 -156 77 -340 156
l-335 143 -1 102 c-1 148 -10 217 -28 217 -18 0 -12 20 9 34 18 11 102 -9 94
-23 -3 -4 73 -39 167 -78 95 -40 232 -96 305 -127 l132 -55 0 16595 0 16594
-27500 0 -27500 0 0 -16594z m53980 15248 c0 -2 -9 -4 -20 -4 -11 0 -20 4 -20
9 0 5 9 7 20 4 11 -3 20 -7 20 -9z m46 -4 c0 -11 -4 -20 -8 -20 -5 0 -17 0
-29 0 -17 0 -18 2 -7 13 7 8 20 16 28 20 8 3 16 6 16 6 1 1 1 -8 0 -19z m51
14 c-3 -3 -12 -4 -19 -1 -8 3 -5 6 6 6 11 1 17 -2 13 -5z m-113 -49 c17 -13
16 -14 -15 -23 -20 -5 -39 -5 -45 0 -17 12 -44 -1 -37 -19 4 -9 13 -12 27 -8
11 3 29 8 39 10 9 2 21 7 27 10 10 6 105 15 154 15 18 0 42 -12 63 -30 18 -17
40 -30 47 -30 17 0 26 -22 31 -73 4 -33 1 -39 -23 -48 -32 -13 -129 10 -124
29 1 7 -4 12 -10 12 -17 -1 -66 -29 -53 -31 6 0 -1 -4 -15 -8 -22 -6 -19 -9
35 -35 51 -24 68 -27 113 -22 40 5 52 3 46 -5 -4 -7 -3 -9 4 -5 6 3 13 2 17
-4 4 -6 -6 -10 -24 -10 -38 0 -34 1 -71 -10 -21 -6 -30 -5 -31 3 0 8 -2 8 -5
1 -3 -6 -15 -9 -28 -7 -13 3 -27 -1 -31 -7 -5 -9 -1 -10 14 -5 20 6 21 5 9
-14 -7 -12 -24 -21 -38 -22 -35 -1 -113 -8 -193 -18 -37 -4 -70 -4 -73 1 -3 4
4 8 15 8 29 0 26 17 -4 24 -16 4 -22 11 -19 21 4 8 1 15 -5 15 -6 0 -11 6 -11
14 0 9 8 12 25 8 18 -3 25 0 25 12 0 9 -7 16 -15 16 -20 0 -19 17 1 28 14 8
14 11 -7 26 -17 12 -19 16 -7 16 17 0 34 43 18 48 -5 2 -6 10 -3 18 4 12 8 13
13 4 5 -9 10 -6 15 9 3 11 11 21 16 21 6 0 7 5 4 10 -3 6 -1 10 4 10 6 0 10 5
9 12 -2 6 17 19 42 29 55 22 51 22 74 4z m-2708 -4129 c28 -949 28 -960 -3
-957 -10 1 -64 1847 -57 1911 8 69 16 80 25 35 4 -22 20 -467 35 -989z m-2242
-197 c12 -475 11 -557 -10 -537 -8 9 -35 1037 -27 1066 16 65 23 -42 37 -529z
m684 -1369 c8 -312 6 -377 -14 -357 -9 9 -27 675 -19 716 7 35 8 35 16 11 4
-14 12 -180 17 -370z m-47461 157 c57 -32 105 -63 108 -67 3 -5 -4 -11 -15
-15 -11 -4 -27 -17 -35 -29 -13 -19 -44 -1109 -205 -7142 -104 -3915 -190
-7150 -190 -7189 l0 -70 2992 -2090 c1645 -1149 3304 -2308 3686 -2575 382
-267 695 -490 695 -495 0 -12 -143 -46 -157 -38 -13 8 -425 294 -4426 3074
-1697 1179 -3096 2151 -3108 2159 l-23 15 51 1685 c48 1625 363 12147 375
12535 3 105 8 232 11 282 l6 93 66 -37 c37 -20 113 -63 169 -96z m-1676 -388
c47 -25 59 -37 59 -56 0 -15 -4 -22 -11 -18 -6 4 -5 -2 2 -13 10 -16 10 -93 2
-377 -6 -196 -13 -359 -16 -361 -3 -3 -34 10 -71 28 l-66 32 0 71 c0 123 19
628 26 678 3 26 8 47 11 47 3 0 32 -14 64 -31z m49652 -1276 c3 -21 33 -1028
66 -2238 33 -1210 62 -2257 65 -2327 4 -109 2 -127 -11 -132 -9 -4 -18 -4 -21
-2 -2 3 -32 1051 -66 2328 -35 1278 -63 2337 -64 2353 -2 64 23 78 31 18z
m-3016 -51 c9 -51 15 -302 7 -302 -10 0 -184 171 -184 181 0 4 16 17 34 29 21
12 33 27 30 35 -6 13 29 31 44 21 4 -2 19 5 32 15 23 19 23 19 3 9 -17 -8 -23
-8 -23 1 0 6 9 13 20 16 11 3 20 10 20 16 0 15 13 -1 17 -21z m-2146 -76 c4
-5 29 -16 55 -25 37 -12 48 -21 49 -38 l2 -23 -178 0 c-98 0 -180 4 -183 9 -3
5 3 19 13 33 14 18 28 23 55 22 20 -1 33 2 30 7 -3 5 -11 7 -17 3 -7 -3 -4 1
6 9 10 8 27 12 39 9 13 -3 25 1 33 11 15 21 79 27 83 7 2 -8 8 -19 13 -24z
m2327 -358 c-3 -7 -11 -13 -18 -13 -7 0 -15 6 -17 13 -3 7 4 12 17 12 13 0 20
-5 18 -12z m458 -1671 c20 -845 34 -1540 31 -1544 -4 -3 -9 -4 -10 -2 -4 4
-79 3098 -76 3134 0 11 5 5 9 -15 5 -19 25 -727 46 -1573z m-4026 1211 c0 -16
-3 -19 -11 -11 -6 6 -8 16 -5 22 11 17 16 13 16 -11z m1760 -719 c0 -104 -2
-189 -4 -189 -2 0 -11 -3 -20 -6 -14 -5 -16 15 -16 183 0 182 6 223 32 207 4
-3 8 -90 8 -195z m1163 -51 c4 -35 7 -155 8 -267 0 -159 -2 -206 -13 -212 -35
-22 -38 -11 -39 124 0 72 -3 188 -5 256 -4 106 -2 127 12 143 10 10 20 18 24
18 4 0 10 -28 13 -62z m6500 -1145 c5 -33 82 -2519 197 -6353 17 -558 48
-1591 70 -2295 36 -1194 37 -1281 22 -1297 -10 -9 -861 -602 -1892 -1319
-1031 -716 -2722 -1891 -3758 -2611 -1036 -720 -1889 -1311 -1895 -1313 -17
-6 -150 29 -153 40 -2 6 788 562 1754 1236 966 675 2624 1833 3683 2573 l1927
1346 66 0 66 0 0 123 c-1 94 -47 1830 -49 1833 -1 0 -28 -2 -60 -4 l-59 -4 -6
93 c-3 52 -52 1828 -108 3946 l-102 3853 24 42 c13 24 24 45 26 46 4 5 228
102 235 102 4 0 9 -17 12 -37z m-42600 -391 l29 -19 -26 -7 c-16 -4 -28 -15
-30 -29 -3 -12 -35 -1835 -71 -4052 -36 -2216 -72 -4376 -80 -4800 -12 -714
-12 -771 3 -786 10 -9 357 -252 772 -540 2543 -1761 3797 -2634 3820 -2657 28
-28 -42 20 -1850 1268 -619 427 -1505 1039 -1970 1359 -465 321 -853 591 -863
601 -18 17 -18 42 -3 821 22 1113 77 3862 131 6579 25 1257 48 2291 50 2298 5
14 30 4 88 -36z m33891 -64 c3 -62 17 -716 31 -1453 14 -737 35 -1772 45
-2300 11 -528 31 -1527 45 -2220 51 -2597 56 -2839 64 -3215 4 -212 5 -390 2
-397 -7 -13 -106 -82 -1266 -883 -401 -277 -1209 -834 -1795 -1239 -1669
-1152 -1811 -1250 -1839 -1265 -54 -29 83 69 524 376 420 292 3155 2189 3750
2601 286 198 524 364 529 368 4 4 3 286 -3 636 -6 345 -40 2385 -76 4533 -35
2148 -67 4035 -71 4193 l-6 288 -26 13 -25 13 29 18 c16 10 38 24 49 31 11 7
23 13 27 13 3 1 9 -50 12 -111z m-41034 -13 c24 -24 41 -47 38 -50 -2 -3 -26
3 -51 12 -43 16 -47 20 -47 50 0 18 4 33 8 33 4 0 28 -20 52 -45z m37798 10
c-2 -10 -7 -12 -17 -5 -13 7 -13 11 -1 25 15 18 24 8 18 -20z m4426 -427 c9
-34 7 -168 -2 -168 -4 0 -32 24 -61 54 l-53 54 33 31 c19 17 40 29 46 26 7 -2
12 -1 12 3 -5 30 17 29 25 0z m-4045 -520 c1 -93 -3 -148 -9 -148 -6 0 -10 62
-9 168 0 102 4 159 9 147 5 -11 9 -86 9 -167z m-167 160 c-6 -7 -40 -31 -76
-53 l-65 -40 -2 -110 c-2 -108 -2 -109 -9 -40 -9 81 -10 235 -2 190 6 -29 6
-29 11 10 6 38 8 40 46 46 75 11 109 10 97 -3z m-35588 -277 c3 -4 -8 -521
-24 -1147 -16 -627 -30 -1172 -30 -1211 0 -58 -3 -73 -15 -73 -19 0 -20 -118
15 1235 16 627 30 1155 30 1173 0 30 12 42 24 23z m41010 -73 c9 -44 7 -208
-2 -208 -4 0 -41 33 -81 74 -67 68 -73 76 -58 90 8 9 24 16 34 17 12 0 14 2 4
6 -8 3 1 13 25 27 56 31 71 30 78 -6z m-991 -350 c11 -176 9 -225 -7 -231 -8
-3 -17 -3 -20 0 -3 4 -6 82 -6 175 0 134 3 168 13 168 11 0 16 -28 20 -112z
m3747 -762 c0 -44 13 -585 30 -1201 16 -616 30 -1174 32 -1239 2 -85 0 -120
-9 -123 -7 -3 -14 12 -17 39 -4 39 -67 2459 -66 2570 0 38 3 46 15 42 12 -5
15 -24 15 -88z m-3196 -63 c9 -132 11 -487 2 -501 -4 -7 -15 -12 -25 -12 -18
0 -19 18 -26 287 -7 270 -7 287 11 300 10 7 21 13 25 13 3 0 9 -39 13 -87z
m-31644 -88 c0 -3 -9 -5 -20 -5 -11 0 -20 7 -20 15 0 13 4 14 20 5 11 -6 20
-13 20 -15z m25410 10 c0 -9 -9 -15 -21 -15 -18 0 -19 2 -9 15 7 8 16 15 21
15 5 0 9 -7 9 -15z m-36628 -1056 c-2 -195 -7 -358 -11 -362 -5 -4 -29 -3 -55
4 -42 10 -46 14 -46 43 0 149 23 680 29 692 1 1 20 -4 44 -11 l42 -12 -3 -354z
m44835 84 c1 -10 5 -81 9 -158 l7 -140 -89 81 c-49 45 -98 91 -108 103 -19 21
-19 21 4 41 12 11 31 22 41 25 11 4 19 11 19 16 0 5 8 9 18 9 9 0 25 7 35 14
18 14 18 14 0 19 -10 3 0 5 22 6 32 1 41 -3 42 -16z m-43811 -400 c-16 -500
-17 -513 -33 -513 -13 0 -14 37 -9 303 8 350 12 397 33 397 13 0 14 -25 9
-187z m-4479 -509 c0 -7 -9 -15 -19 -17 -16 -5 -25 12 -13 25 10 10 32 4 32
-8z m150 -281 c-2 -21 -4 -6 -4 32 0 39 2 55 4 38 2 -18 2 -50 0 -70z m-157
-25 c0 -12 -38 -10 -45 2 -4 6 -4 18 -1 27 6 14 9 14 26 -2 11 -10 20 -22 20
-27z m48062 -135 c5 -132 -1 -176 -16 -120 -9 36 -7 282 3 272 5 -6 11 -74 13
-152z m-9452 -107 c0 -63 -3 -117 -8 -120 -4 -2 -50 -6 -102 -7 l-95 -3 -3
122 -3 122 106 0 105 0 0 -114z m-223 -13 c-2 -16 -4 -5 -4 22 0 28 2 40 4 28
2 -13 2 -35 0 -50z m-33927 -63 c0 -5 -2 -10 -4 -10 -3 0 -8 5 -11 10 -3 6 -1
10 4 10 6 0 11 -4 11 -10z m4608 -307 c5 -10 7 -123 4 -256 -5 -235 -5 -238
-26 -235 -21 3 -21 5 -18 238 4 238 6 270 22 270 5 0 13 -8 18 -17z m-2478
-560 c0 -21 -23 -949 -50 -2063 -27 -1114 -50 -2064 -50 -2112 0 -70 -3 -88
-15 -88 -12 0 -13 19 -9 118 3 64 25 968 49 2007 48 2038 52 2175 66 2175 5 0
9 -17 9 -37z m43049 -195 c1 -71 -2 -88 -13 -88 -12 0 -16 26 -18 141 -2 82 1
148 7 157 12 20 22 -69 24 -210z m-7261 -121 c4 -32 -8 -34 -34 -6 -16 17 -16
22 -4 29 22 14 35 7 38 -23z m-1658 -403 c0 -17 -22 -14 -28 4 -2 7 3 12 12
12 9 0 16 -7 16 -16z m-27250 -728 c-7 -7 -10 36 -10 135 0 80 3 149 8 153 4
4 8 -56 10 -135 2 -88 -1 -146 -8 -153z m-5201 29 c-3 -3 -20 -2 -37 1 -29 6
-32 10 -32 43 l0 36 37 -37 c20 -21 35 -40 32 -43z m9949 -12 l3 -43 -45 0
-46 0 0 46 0 45 43 -3 c42 -3 42 -3 45 -45z m-5923 -33 c3 -5 1 -10 -4 -10 -6
0 -11 5 -11 10 0 6 2 10 4 10 3 0 8 -4 11 -10z m5840 -250 c22 -6 12 -8 -40
-8 -48 0 -64 2 -50 8 24 10 50 10 90 0z m-13513 -39 c6 -6 -9 -612 -16 -619
-2 -2 -21 0 -41 4 l-37 7 7 306 c4 168 9 310 12 314 5 9 63 -1 75 -12z m45342
-13 c4 -22 57 -2033 56 -2145 0 -39 -4 -53 -14 -53 -11 0 -15 32 -20 153 -14
323 -56 2049 -50 2058 10 16 24 10 28 -13z m-31754 -169 c0 -109 0 -110 -22
-107 -22 3 -23 7 -20 74 l3 71 -63 12 c-88 18 -88 18 -88 41 0 19 6 20 95 20
l95 0 0 -111z m-80 -119 c20 -6 14 -8 -28 -9 -33 -1 -51 3 -47 9 7 12 39 12
75 0z m137 -207 c-3 -10 -5 -2 -5 17 0 19 2 27 5 18 2 -10 2 -26 0 -35z
m18803 -43 c0 -44 -4 -80 -9 -80 -31 0 -36 12 -33 73 4 76 7 87 27 87 12 0 15
-15 15 -80z m-18803 -27 c-3 -10 -5 -4 -5 12 0 17 2 24 5 18 2 -7 2 -21 0 -30z
m21913 -108 c0 -77 -4 -125 -10 -125 -6 0 -10 48 -10 125 0 77 4 125 10 125 6
0 10 -48 10 -125z m3133 38 c4 -38 7 -148 7 -245 0 -152 -2 -178 -15 -178 -13
0 -15 21 -15 133 0 72 -3 183 -7 245 -5 96 -4 112 9 112 11 0 17 -17 21 -67z
m4101 -433 c3 -195 9 -424 13 -507 4 -99 2 -153 -4 -153 -11 0 -20 247 -28
765 -3 190 -1 306 4 285 5 -19 12 -195 15 -390z m1337 223 c0 -21 4 -162 9
-313 4 -153 4 -279 -1 -284 -5 -6 -10 -4 -13 5 -2 8 -7 152 -11 322 -5 216 -3
307 4 307 6 0 11 -17 12 -37z m-30494 -265 c-2 -29 -3 -6 -3 52 0 58 1 81 3
53 2 -29 2 -77 0 -105z m-10348 -264 c-6 -219 -13 -401 -16 -404 -5 -6 5 555
13 708 12 214 13 82 3 -304z m6646 -531 c-5 -134 -11 -213 -17 -213 -11 0 -10
33 10 680 l7 245 3 -250 c2 -137 0 -346 -3 -462z m-2205 170 c0 -104 -3 -205
-6 -225 -12 -73 -24 -37 -24 75 0 158 11 337 22 337 4 0 8 -84 8 -187z m34268
65 c2 -43 -1 -78 -5 -78 -5 0 -42 33 -82 74 l-74 75 54 4 c110 8 104 12 107
-75z m-37826 -140 l40 -48 -66 0 -66 0 0 58 c0 32 3 62 7 65 8 9 33 -14 85
-75z m33178 -3 c0 -29 -7 -31 -32 -8 -25 22 -23 33 7 33 20 0 25 -5 25 -25z
m6758 -462 c3 -10 -31 -13 -147 -13 -139 0 -164 4 -144 24 4 3 70 5 147 4 100
-2 141 -6 144 -15z m-561 -115 c-2 -13 -4 -3 -4 22 0 25 2 35 4 23 2 -13 2
-33 0 -45z m-35421 28 c20 -20 18 -26 -11 -26 -18 0 -25 5 -25 20 0 23 16 26
36 6z m-5573 -1416 c-13 -547 -26 -996 -29 -999 -2 -2 -6 -2 -9 0 -3 3 40
1932 45 2009 0 2 4 0 8 -5 5 -6 -2 -458 -15 -1005z m-1647 703 c-10 -455 -18
-594 -30 -590 -6 2 -11 10 -11 18 2 205 17 775 22 807 3 23 10 42 16 42 7 0 8
-89 3 -277z m42171 -168 l0 -130 -8 90 c-4 50 -7 160 -6 245 l0 155 7 -115 c4
-63 7 -173 7 -245z m876 8 c4 -54 7 -164 7 -245 l0 -148 -25 0 c-32 0 -34 13
-37 278 l-3 212 26 0 c26 0 26 -1 32 -97z m-34829 -344 c-10 -16 -24 -9 -24
12 0 18 2 19 15 9 8 -7 12 -16 9 -21z m-4934 -526 c0 -252 -7 -323 -31 -323
-17 0 -19 10 -19 118 0 66 3 180 7 255 5 124 8 137 25 137 17 0 18 -12 18
-187z m-8222 58 c56 -60 99 -112 94 -115 -14 -8 -133 -26 -234 -34 -80 -6 -98
-5 -100 6 -2 8 -2 68 0 133 l3 119 68 0 67 0 102 -109z m33749 -317 c-3 -3
-12 -4 -19 -1 -8 3 -5 6 6 6 11 1 17 -2 13 -5z m13693 -179 c0 -14 -4 -25 -10
-25 -5 0 -10 11 -10 25 0 14 5 25 10 25 6 0 10 -11 10 -25z m-26740 -290 c0
-23 -3 -25 -50 -25 -59 0 -64 12 -12 33 52 22 62 21 62 -8z m12160 9 c49 -20
43 -34 -16 -34 -40 0 -44 2 -44 25 0 29 6 30 60 9z m-16456 -29 c-4 -8 -8 -15
-10 -15 -2 0 -4 7 -4 15 0 8 4 15 10 15 5 0 7 -7 4 -15z m1656 -39 c-14 -8
-29 -12 -34 -8 -10 6 20 20 44 21 8 0 4 -6 -10 -13z m17454 5 c11 -4 15 -10
10 -13 -5 -4 -20 0 -34 8 -26 14 -9 18 24 5z m-34597 -27 c3 -8 2 -79 -3 -157
l-9 -142 -42 -3 -42 -3 5 148 c3 81 7 154 10 161 5 18 73 15 81 -4z m33371
-504 c9 -6 40 -20 67 -31 43 -18 47 -22 30 -29 -11 -5 -43 -9 -71 -9 l-52 -1
-4 35 c-5 47 0 52 30 35z m-15048 -35 l0 -35 -52 1 c-29 0 -62 4 -73 8 -17 7
-12 12 35 34 78 36 90 35 90 -8z m-17285 -25 c25 -26 27 -32 15 -40 -8 -5 -25
-10 -37 -10 -20 0 -23 5 -23 40 0 22 4 40 8 40 5 0 21 -14 37 -30z m-1067
-426 l-3 -149 -42 -3 -43 -3 0 124 c0 168 4 185 44 189 17 2 34 1 39 -3 4 -3
6 -73 5 -155z m14278 141 c-10 -8 -24 -16 -30 -19 -13 -6 -32 7 239 -164 121
-77 220 -143 220 -148 0 -5 -11 -10 -25 -12 -18 -2 -94 40 -269 151 -135 84
-246 158 -248 164 -2 6 22 17 54 26 74 19 82 20 59 2z m23290 -2 c35 -9 64
-20 64 -23 0 -11 -498 -320 -516 -320 -59 1 -38 21 128 125 95 60 204 129 242
153 l70 44 -35 19 c-43 23 -34 23 47 2z m-35293 -87 c17 -13 17 -31 11 -279
-4 -146 -11 -272 -15 -279 -8 -12 -392 -36 -612 -37 l-88 -1 3 32 c2 20 9 34
18 35 8 0 55 7 104 13 81 11 88 14 70 27 -10 8 -19 17 -19 21 -1 13 -30 72
-36 72 -3 0 -6 7 -6 15 0 8 4 15 8 15 4 0 14 13 22 29 10 21 11 28 3 25 -7 -3
-13 1 -14 8 -1 7 -4 24 -7 38 -5 20 1 34 24 60 41 47 41 62 0 40 -22 -12 -24
-7 -7 19 9 15 17 17 35 10 16 -6 23 -5 24 4 0 6 2 21 4 32 2 10 -1 25 -7 33
-9 10 -6 14 10 19 12 3 20 8 18 12 -21 33 60 45 344 49 66 1 100 -3 113 -12z
m48891 -8 c8 -39 73 -2372 67 -2394 -5 -17 -10 -20 -27 -14 -20 8 -22 18 -28
162 -15 362 -67 2241 -62 2254 9 23 45 17 50 -8z m-15291 -592 c64 -28 114
-53 110 -57 -8 -7 -234 -32 -239 -26 -2 2 -6 114 -5 130 1 5 4 7 9 5 4 -1 60
-25 125 -52z m-19893 -22 l0 -66 -42 5 c-24 4 -79 9 -123 13 -44 3 -84 9 -88
11 -5 3 40 25 99 49 59 24 109 46 112 49 3 3 14 5 24 5 16 0 18 -9 18 -66z
m-16000 -156 c0 -24 -3 -93 -7 -154 l-6 -112 -36 -6 c-19 -3 -39 -2 -44 3 -4
4 -5 76 -1 160 l7 151 43 0 44 0 0 -42z m42546 -8 c8 0 14 -4 14 -9 0 -11 -49
-1 -57 12 -4 7 0 8 11 4 10 -4 24 -7 32 -7z m-43442 -347 c-3 -148 -10 -288
-13 -313 -6 -43 -7 -45 -50 -53 -55 -11 -62 -1 -56 78 3 33 8 167 11 298 l6
237 27 6 c14 3 31 7 36 9 6 2 18 4 28 4 18 1 18 -11 11 -266z m450 -476 c-4
-37 -11 -67 -15 -67 -11 0 -12 133 -2 144 16 16 23 -16 17 -77z m-324 -31 c0
-24 -3 -77 -6 -119 -7 -74 -8 -77 -32 -77 -24 0 -25 2 -18 53 3 28 6 82 6 119
0 55 3 67 18 71 27 6 32 -1 32 -47z m3035 -93 c-17 -453 -15 -433 -36 -433
-16 0 -19 8 -19 50 0 28 -2 50 -4 50 -2 0 -91 -20 -197 -45 -185 -43 -200 -45
-324 -43 l-130 3 3 260 c2 143 6 263 10 267 8 7 455 34 605 37 l98 1 -6 -147z
m6271 99 c-3 -5 -23 -17 -46 -27 -43 -20 -49 -29 -24 -39 38 -15 702 -441 696
-447 -11 -9 -241 -89 -258 -89 -13 0 -700 430 -753 471 -29 23 -44 16 189 85
183 54 204 59 196 46z m34984 -48 c107 -30 198 -58 202 -60 5 -3 -2 -14 -14
-23 -35 -27 -703 -449 -731 -462 -21 -10 -45 -5 -151 31 -69 23 -128 45 -131
50 -2 4 155 108 350 231 195 123 355 227 355 231 0 4 -21 19 -47 32 -27 14
-43 25 -37 26 6 0 98 -25 204 -56z m-43438 -195 c-13 -13 -103 -39 -113 -34
-11 7 -12 148 -1 159 4 5 33 -20 64 -55 32 -35 54 -66 50 -70z m-662 -306 c0
-49 -3 -105 -6 -125 l-6 -37 -82 -3 c-44 -2 -84 -1 -89 2 -4 4 -4 59 -1 123
l7 116 36 4 c20 2 60 4 89 5 l52 2 0 -87z m-10 -198 c0 -12 -17 -15 -90 -15
-49 0 -90 4 -90 9 0 11 39 17 123 19 45 2 57 -1 57 -13z m2022 -132 c43 -43
78 -80 78 -84 0 -4 -26 -19 -57 -34 -32 -15 -66 -31 -75 -36 -35 -18 -38 -10
-38 111 0 66 3 120 7 120 4 0 43 -35 85 -77z m10006 -47 l-3 -88 -100 -42
-100 -43 -162 26 c-89 15 -165 30 -169 34 -4 4 -1 7 7 7 8 0 127 47 264 105
138 57 254 100 258 96 4 -4 7 -47 5 -95z m28928 95 c5 -5 107 -50 227 -100
120 -50 225 -95 235 -100 24 -13 15 -16 -158 -45 l-144 -24 -96 41 c-52 22
-98 43 -102 46 -3 3 -8 48 -10 99 -3 87 -2 92 18 92 11 0 24 -4 30 -9z
m-28953 -245 c-16 -22 -26 -25 -77 -26 -33 0 -56 3 -53 7 15 14 142 60 145 52
2 -5 -5 -20 -15 -33z m29046 -11 c25 -14 24 -14 -33 -15 -64 0 -96 17 -96 51
0 18 2 18 51 -2 29 -11 63 -26 78 -34z m-14237 -4749 c6 -8 8 -8 8 0 0 12 98
12 118 0 6 -4 20 -1 30 5 14 9 24 9 38 1 18 -11 17 -11 -6 -12 -31 0 -61 -19
-42 -27 6 -2 12 -20 12 -39 0 -31 3 -34 28 -33 16 1 20 3 10 6 -10 2 -18 12
-18 21 0 11 3 13 8 6 4 -6 17 -13 30 -17 19 -4 22 -2 18 11 -5 14 -3 13 8 -2
14 -17 16 -17 31 -2 21 20 23 20 21 -1 -1 -21 -29 -35 -53 -26 -11 4 -14 3 -9
-6 6 -9 1 -12 -15 -9 -15 2 -23 -2 -22 -9 2 -8 -4 -10 -14 -6 -9 4 -21 -1 -28
-10 -8 -12 -39 -20 -96 -28 -46 -6 -96 -14 -111 -19 -15 -5 -28 -5 -30 -2 -2
4 -21 4 -43 1 -22 -3 -31 -7 -20 -8 16 -1 17 -3 6 -10 -7 -5 -26 -5 -41 -1
-19 6 -27 4 -27 -6 0 -7 5 -10 10 -7 6 3 7 1 3 -6 -4 -6 -11 -9 -16 -6 -4 3
-11 -1 -13 -7 -4 -10 -7 -10 -15 0 -7 10 -11 10 -21 -2 -12 -14 -15 -14 -30 2
-9 10 -13 13 -9 7 5 -8 -12 -9 -60 -4 -70 7 -86 4 -62 -12 12 -8 11 -10 -5 -8
-51 4 -63 -1 -58 -21 5 -18 2 -20 -21 -16 -19 3 -24 1 -19 -7 4 -7 0 -6 -10 2
-15 12 -17 11 -17 -3 0 -12 10 -16 40 -16 33 0 40 3 40 20 0 13 5 18 15 14 13
-5 12 -8 -1 -21 -11 -12 -12 -18 -4 -23 7 -4 -12 -6 -40 -4 -29 1 -56 6 -59
11 -10 14 -65 9 -79 -7 -8 -8 -11 -9 -7 -2 4 7 0 12 -10 12 -10 0 -13 -5 -9
-12 5 -9 2 -9 -9 1 -15 12 -21 9 -19 -10 1 -3 -6 -6 -14 -6 -10 0 -11 4 -4 11
13 13 13 29 0 21 -16 -10 -11 1 7 16 9 8 14 9 10 3 -10 -18 20 -25 33 -8 7 8
23 14 37 14 15 0 22 4 17 11 -4 7 1 7 16 -1 15 -8 20 -8 16 -1 -4 6 -1 12 6
12 7 1 0 4 -17 8 -20 5 -33 3 -38 -6 -4 -7 -17 -13 -27 -13 -11 0 -20 -5 -20
-12 0 -6 -3 -9 -6 -5 -10 10 19 77 34 77 7 0 10 -4 7 -10 -3 -5 1 -10 10 -10
9 0 14 4 10 9 -3 5 -1 12 5 16 5 3 10 -2 10 -12 0 -14 2 -15 9 -4 5 7 13 11
19 7 15 -9 72 14 72 30 0 9 -11 14 -30 14 -16 0 -30 -4 -30 -10 0 -5 -12 -8
-27 -8 -16 1 -38 -1 -50 -6 -14 -4 -23 -3 -23 3 0 5 15 13 33 16 17 4 37 11
42 15 6 3 37 13 70 20 l60 14 -60 8 c-33 4 -101 5 -151 2 -61 -4 -94 -2 -98 5
-8 13 -15 12 173 17 79 2 148 7 154 13 5 5 16 7 23 4 8 -3 14 0 14 7 0 6 5 8
10 5 6 -3 10 1 10 10 0 9 5 13 10 10 6 -3 13 1 16 10 5 13 16 15 51 11 34 -3
43 -1 39 9 -2 7 2 16 10 19 25 10 32 7 38 -12 5 -14 14 -17 36 -14 18 2 30 0
30 -7 0 -6 -7 -8 -15 -5 -21 8 -19 -2 5 -26 18 -18 26 -14 21 14 -1 5 5 6 14
3 8 -4 15 -2 15 2 0 5 10 7 23 4 16 -3 18 -2 9 5 -11 7 -8 11 12 14 14 3 26 2
26 -2 0 -5 8 -6 19 -3 12 3 17 11 14 23 -4 14 -10 17 -31 11 -29 -9 -61 -3
-44 8 18 11 77 9 84 -3z m-97 -13 c18 -14 18 -15 2 -9 -10 3 -30 6 -43 6 -14
0 -22 4 -19 10 9 15 37 12 60 -7z m375 13 c0 -2 -9 -6 -20 -9 -11 -3 -20 -1
-20 4 0 5 9 9 20 9 11 0 20 -2 20 -4z m50 -17 c0 -6 -4 -7 -10 -4 -5 3 -10 11
-10 16 0 6 5 7 10 4 6 -3 10 -11 10 -16z m138 2 c3 -10 0 -12 -11 -8 -22 8
-54 -23 -35 -34 10 -7 9 -9 -4 -9 -12 0 -17 7 -15 22 2 18 -4 23 -27 25 -15 1
-31 5 -35 9 -3 3 15 4 42 2 26 -3 47 -1 47 4 0 15 33 5 38 -11z m12 -46 c-7
-9 -15 -13 -19 -10 -3 3 1 10 9 15 21 14 24 12 10 -5z m-14 -25 c8 0 14 -3 14
-8 0 -4 -23 -7 -50 -6 -28 1 -66 -2 -85 -6 -28 -6 -35 -5 -35 7 0 10 7 14 20
10 11 -3 22 -2 25 3 3 4 23 7 45 6 30 -2 40 2 41 13 1 13 2 12 6 -1 2 -10 11
-18 19 -18z m-1506 -69 c0 -3 43 -8 96 -9 168 -6 152 -21 -23 -21 -98 -1 -164
3 -168 9 -3 6 0 10 7 10 9 0 9 3 -2 10 -11 7 0 10 38 8 28 0 52 -4 52 -7z
m-113 -27 c-3 -3 -12 -4 -19 -1 -8 3 -5 6 6 6 11 1 17 -2 13 -5z m473 -14 c8
-5 11 -12 7 -17 -5 -4 -12 -1 -16 6 -7 11 -10 11 -14 0 -4 -10 -6 -9 -6 4 -1
19 7 21 29 7z m-130 -20 c-18 -12 -58 -12 -85 0 -14 6 -3 9 40 9 42 1 56 -2
45 -9z m-174 -41 c3 -6 15 -8 26 -5 11 2 30 -1 42 -8 11 -8 29 -12 39 -11 9 2
15 -1 11 -6 -3 -5 0 -9 5 -9 6 0 11 5 11 10 0 19 18 10 23 -11 3 -12 10 -18
17 -14 8 5 8 11 0 20 -8 9 -4 12 17 9 15 -1 29 -8 31 -13 2 -6 10 -11 19 -11
9 0 13 -8 11 -22 -3 -19 -10 -23 -49 -26 -43 -3 -46 -1 -45 19 1 18 -7 24 -46
34 -31 8 -48 8 -48 2 0 -6 -9 -2 -20 8 -20 18 -21 18 -14 0 6 -14 4 -16 -7 -9
-22 14 -90 11 -84 -3 2 -7 0 -13 -5 -13 -6 0 -10 4 -10 9 0 5 -14 8 -30 6 -18
-3 -28 0 -25 5 4 6 2 10 -4 10 -5 0 -12 -6 -15 -12 -3 -7 -4 -4 -3 7 2 15 9
19 27 17 24 -3 24 -2 5 12 -18 14 -15 15 47 16 38 0 70 -5 74 -11z m168 0 c-2
-4 -12 -7 -22 -7 -9 0 -21 0 -27 -2 -19 -5 -55 0 -55 8 0 4 25 7 54 8 30 0 53
-3 50 -7z m73 -31 c-3 -8 -6 -5 -6 6 -1 11 2 17 5 13 3 -3 4 -12 1 -19z m-224
-22 c4 -10 1 -13 -8 -9 -8 3 -12 9 -9 14 7 12 11 11 17 -5z m77 -31 c13 -16
35 -21 25 -6 -3 5 0 13 7 17 7 4 10 4 6 -1 -4 -4 -3 -14 3 -22 18 -21 -19 -16
-48 7 -14 11 -21 20 -16 20 6 0 16 -7 23 -15z m-866 -393 c3 -5 -1 -9 -9 -9
-8 0 -12 4 -9 9 3 4 7 8 9 8 2 0 6 -4 9 -8z m2676 -536 c0 -3 -4 -8 -10 -11
-5 -3 -10 -1 -10 4 0 6 5 11 10 11 6 0 10 -2 10 -4z m-2509 -89 c-8 -8 -11 -6
-11 6 0 15 -7 16 -42 11 -41 -6 -42 -6 -21 10 16 12 28 14 47 6 24 -9 26 -7
28 18 1 23 2 22 5 -7 3 -18 0 -38 -6 -44z m1226 47 c-3 -3 -12 -4 -19 -1 -8 3
-5 6 6 6 11 1 17 -2 13 -5z m-1357 -24 c0 -5 -4 -10 -10 -10 -5 0 -10 5 -10
10 0 6 5 10 10 10 6 0 10 -4 10 -10z m983 3 c-7 -2 -21 -2 -30 0 -10 3 -4 5
12 5 17 0 24 -2 18 -5z m256 -8 c11 -3 18 -13 17 -23 -3 -15 -20 -17 -179 -17
-96 0 -178 -3 -182 -7 -8 -8 13 -32 35 -40 8 -3 -16 -9 -55 -12 -38 -4 -83
-11 -100 -16 -16 -5 -49 -12 -72 -15 -65 -10 -51 -25 25 -26 l67 -1 -42 -13
c-23 -8 -80 -16 -125 -20 -46 -3 -109 -8 -140 -11 -36 -3 -58 -1 -58 6 0 10
12 14 40 11 11 -1 10 1 -3 10 -13 8 -22 8 -32 -1 -16 -13 -39 -4 -29 11 3 5 9
7 14 4 5 -3 11 -1 15 5 3 5 0 10 -7 10 -8 0 -6 5 5 11 9 5 17 15 17 20 0 6 -4
7 -10 4 -5 -3 -7 0 -4 9 3 8 12 12 20 9 8 -3 14 1 14 8 0 7 3 10 6 6 4 -3 12
0 20 7 16 16 197 13 202 -4 5 -14 119 -13 128 2 5 8 2 9 -9 5 -11 -4 -17 -1
-17 7 0 19 49 37 96 35 53 -2 178 19 182 31 4 10 127 6 161 -5z m-1209 1 c0
-3 -4 -8 -10 -11 -5 -3 -10 -1 -10 4 0 6 5 11 10 11 6 0 10 -2 10 -4z m730
-16 c0 -5 -12 -10 -27 -9 l-28 1 25 8 c14 4 26 8 28 9 1 1 2 -3 2 -9z m23 -37
c-7 -2 -19 -2 -25 0 -7 3 -2 5 12 5 14 0 19 -2 13 -5z m2321 -402 c4 -5 -3 -7
-14 -4 -23 6 -26 13 -6 13 8 0 17 -4 20 -9z m131 -21 c3 -6 -1 -7 -9 -4 -18 7
-21 14 -7 14 6 0 13 -4 16 -10z m-178 -16 c-3 -3 -12 -4 -19 -1 -8 3 -5 6 6 6
11 1 17 -2 13 -5z m43 -2 c0 -5 -7 -9 -15 -9 -8 0 -12 4 -9 9 3 4 9 8 15 8 5
0 9 -4 9 -8z m-106 -29 c3 -7 0 -15 -6 -19 -7 -5 -8 -2 -3 6 6 10 -3 11 -41 7
-27 -4 -43 -4 -36 -1 6 3 10 9 8 12 -2 4 13 7 35 7 21 0 41 -5 43 -12z m51 -1
c-3 -3 -11 0 -18 7 -9 10 -8 11 6 5 10 -3 15 -9 12 -12z m140 -12 c-3 -5 -10
-10 -16 -10 -5 0 -9 5 -9 10 0 6 7 10 16 10 8 0 12 -4 9 -10z m-2715 -29 c0
-6 18 -7 43 -3 23 4 157 6 297 5 213 -3 257 -5 266 -18 6 -8 16 -15 21 -15 6
0 16 -7 23 -15 14 -17 35 -21 25 -5 -8 13 17 9 27 -4 10 -15 81 -17 90 -3 6 9
8 8 8 -3 0 -12 2 -12 9 -2 11 17 131 30 131 14 0 -18 -100 -36 -101 -18 0 7
-3 6 -6 -1 -2 -7 -13 -13 -23 -13 -9 0 -23 -6 -29 -14 -7 -8 -44 -15 -104 -19
-107 -6 -118 -8 -132 -23 -17 -19 -53 -23 -59 -7 -3 8 -1 11 4 8 6 -3 10 -1
10 4 0 6 -4 11 -10 11 -5 0 -10 6 -10 14 0 12 -7 13 -32 5 -41 -11 -47 -11
-28 1 12 7 10 11 -10 18 -14 5 -24 12 -22 16 6 17 0 24 -18 19 -11 -3 -20 -11
-20 -18 0 -16 -31 -42 -47 -39 -7 1 -21 2 -30 3 -13 1 -14 4 -6 12 7 7 20 9
30 5 20 -8 29 -5 25 7 -1 5 2 6 8 2 5 -3 10 -2 10 4 0 17 -18 21 -24 5 -3 -8
-9 -13 -13 -11 -16 10 -102 17 -107 9 -3 -4 -26 -9 -53 -11 -26 -1 -50 -6 -53
-10 -3 -4 -13 -12 -22 -17 -12 -7 -14 -14 -8 -24 8 -13 10 -12 10 3 0 11 6 17
13 14 6 -2 17 3 24 12 7 9 13 11 13 4 0 -6 9 -9 20 -6 11 3 28 2 37 -2 17 -7
16 -8 -2 -16 -11 -4 25 -6 86 -2 84 4 108 3 114 -8 5 -8 5 -11 0 -7 -4 4 -14
0 -22 -10 -12 -16 -13 -16 -7 3 5 19 4 19 -8 -1 -7 -12 -21 -20 -30 -19 -10 2
-16 -2 -15 -8 1 -7 -12 -12 -31 -13 -19 -1 -38 -7 -43 -15 -5 -9 -9 -9 -9 -2
0 9 -27 11 -37 3 -4 -3 -20 -7 -35 -9 -9 -1 -8 -4 2 -11 9 -6 10 -10 3 -10 -6
0 -15 5 -18 10 -4 6 -12 7 -18 3 -13 -8 -28 -12 -72 -19 -22 -4 -26 -3 -15 5
12 9 12 11 -3 17 -9 3 -25 0 -34 -7 -13 -11 -15 -11 -9 -1 4 7 2 20 -6 29 -10
13 -10 17 0 20 6 3 12 14 12 26 0 18 2 19 10 7 8 -13 10 -13 10 2 0 9 5 18 12
20 26 9 -4 26 -42 24 -22 -1 -37 1 -32 6 12 12 2 79 -11 71 -6 -3 -7 -1 -3 5
10 17 26 15 26 -3 0 -8 6 -12 14 -9 8 3 12 12 9 20 -3 8 1 14 11 14 9 0 16 -4
16 -9z m2453 -32 c31 -6 65 -8 75 -3 9 4 23 6 31 5 7 -1 10 2 6 9 -4 6 7 4 24
-4 20 -11 30 -12 29 -5 -2 6 3 14 11 17 8 3 11 0 7 -7 -4 -6 -2 -11 3 -11 6 0
11 5 11 11 0 7 7 8 18 4 15 -6 32 -11 52 -14 3 -1 -2 -6 -10 -12 -12 -8 -8
-10 15 -8 59 3 70 0 57 -13 -15 -15 -16 -32 -2 -23 6 3 10 3 10 -2 0 -4 26 -8
58 -8 74 1 112 -13 111 -40 -1 -17 -2 -17 -6 -2 -2 9 -9 15 -14 11 -5 -3 -7
-9 -5 -13 7 -11 -23 -13 -130 -8 -52 2 -71 0 -67 -9 2 -6 -3 -14 -13 -18 -13
-5 -15 -2 -11 14 3 14 1 20 -6 17 -7 -2 -10 -12 -9 -22 3 -14 0 -16 -10 -9
-20 15 -65 17 -74 3 -5 -8 -3 -10 7 -4 8 4 1 -4 -14 -18 -17 -15 -24 -28 -18
-32 6 -3 11 -2 11 4 0 6 7 8 15 5 8 -4 21 -1 29 5 16 13 49 4 39 -12 -3 -5 -1
-7 5 -3 6 3 13 2 17 -4 4 -7 12 -7 25 0 13 7 21 5 31 -7 12 -15 12 -16 -3 -10
-20 7 -25 -8 -5 -17 6 -3 0 -4 -15 -1 -17 3 -28 1 -28 -5 0 -6 -4 -9 -9 -5 -5
3 -13 0 -16 -6 -4 -5 -13 -8 -21 -5 -8 3 -17 -1 -21 -10 -5 -13 -7 -13 -14 -2
-5 7 -23 13 -40 13 -18 0 -34 6 -36 13 -3 6 2 12 11 12 9 0 16 5 16 11 0 6 -7
8 -16 5 -8 -3 -12 -2 -9 4 3 6 2 10 -3 10 -6 0 -13 7 -16 16 -4 9 -2 13 5 8 7
-4 10 1 7 12 -3 15 -11 18 -45 16 -22 -2 -44 1 -47 6 -4 6 10 9 34 6 23 -2 40
1 40 6 0 11 -115 5 -133 -7 -6 -4 -8 0 -5 9 4 8 1 15 -7 15 -7 0 -11 -7 -8
-16 4 -13 3 -13 -5 -2 -6 8 -8 20 -5 26 2 7 -7 15 -21 19 -17 4 -23 11 -20 21
4 9 -1 18 -11 21 -15 6 -15 8 5 19 15 8 19 15 11 19 -6 4 -11 2 -11 -4 0 -6
-5 -8 -10 -5 -8 5 -8 11 0 20 12 14 48 13 143 -6z m594 15 c-3 -3 -12 -4 -19
-1 -8 3 -5 6 6 6 11 1 17 -2 13 -5z m-3451 -106 c-3 -46 -6 -84 -6 -86 -1 -8
-57 13 -67 25 -9 11 -36 15 -115 15 -136 1 -161 10 -86 32 31 9 70 17 87 19
18 2 40 11 49 20 15 16 14 17 -18 18 -19 1 -42 1 -50 0 -13 -2 -13 0 -1 8 14
9 116 6 132 -5 5 -3 9 3 9 13 0 12 3 14 8 6 10 -16 51 -13 45 4 -3 7 0 13 7
13 9 0 11 -21 6 -82z m3314 74 c0 -14 -35 -32 -62 -31 -18 1 -25 3 -15 6 9 2
17 9 17 14 0 6 -4 7 -10 4 -5 -3 -10 -2 -10 4 0 6 18 10 40 8 22 -1 40 -3 40
-5z m-2525 -22 c-3 -5 -10 -10 -16 -10 -5 0 -9 5 -9 10 0 6 7 10 16 10 8 0 12
-4 9 -10z m1842 -37 c-3 -10 -5 -2 -5 17 0 19 2 27 5 18 2 -10 2 -26 0 -35z
m-1977 16 c0 -5 -6 -9 -13 -9 -8 0 -14 6 -14 14 0 8 6 12 14 9 7 -3 13 -9 13
-14z m2690 1 c0 -5 -2 -10 -4 -10 -3 0 -8 5 -11 10 -3 6 -1 10 4 10 6 0 11 -4
11 -10z m30 6 c0 -3 -4 -8 -10 -11 -5 -3 -10 -1 -10 4 0 6 5 11 10 11 6 0 10
-2 10 -4z m47 -2 c-3 -3 -12 -4 -19 -1 -8 3 -5 6 6 6 11 1 17 -2 13 -5z m-40
-36 c-3 -8 -6 -5 -6 6 -1 11 2 17 5 13 3 -3 4 -12 1 -19z m-683 0 c-3 -4 0 -8
6 -8 7 0 5 -6 -4 -15 -18 -19 -30 -19 -23 -1 3 7 1 18 -5 24 -8 8 -5 11 10 9
11 0 18 -5 16 -9z m-2337 -43 c-9 -7 -14 -15 -10 -18 3 -4 1 -7 -6 -7 -8 0
-11 7 -7 15 4 11 -2 15 -26 15 -38 0 -34 5 10 13 21 4 31 3 27 -3 -3 -6 -1
-10 4 -10 6 0 11 8 12 18 0 12 2 13 6 3 3 -8 -2 -20 -10 -26z m2280 29 c-3 -4
0 -13 8 -21 12 -11 12 -17 2 -28 -10 -11 -13 -8 -18 14 -6 26 -3 41 8 41 4 0
4 -3 0 -6z m-1517 -24 c0 -5 -20 -10 -45 -10 -25 0 -45 5 -45 10 0 6 20 10 45
10 25 0 45 -4 45 -10z m2100 6 c0 -2 -8 -10 -17 -17 -16 -13 -17 -12 -4 4 13
16 21 21 21 13z m-2440 -16 c0 -5 -5 -10 -11 -10 -5 0 -7 5 -4 10 3 6 8 10 11
10 2 0 4 -4 4 -10z m2385 0 c3 -5 1 -10 -4 -10 -6 0 -11 5 -11 10 0 6 2 10 4
10 3 0 8 -4 11 -10z m-305 -33 c0 -4 -4 -5 -10 -2 -5 3 -10 3 -10 -2 0 -12
-93 -3 -105 9 -7 8 -5 9 8 5 10 -4 17 -1 17 6 0 7 3 8 8 2 12 -16 61 -14 54 3
-4 12 -2 12 17 1 11 -8 21 -17 21 -22z m747 15 c1 -10 -5 -19 -12 -19 -10 0
-11 5 -4 19 5 10 11 18 12 18 2 0 3 -8 4 -18z m43 0 c0 -5 -7 -9 -15 -9 -8 0
-15 4 -15 9 0 4 7 8 15 8 8 0 15 -4 15 -8z m-615 -12 c3 -5 -1 -10 -10 -10 -9
0 -13 5 -10 10 3 6 8 10 10 10 2 0 7 -4 10 -10z m665 -5 c0 -9 -6 -12 -15 -9
-8 4 -12 10 -9 15 8 14 24 10 24 -6z m-792 -36 c-3 -8 -7 -3 -11 10 -4 17 -3
21 5 13 5 -5 8 -16 6 -23z m276 19 c-3 -4 -1 -8 4 -8 5 0 9 -7 9 -15 0 -8 -7
-15 -14 -15 -8 0 -12 4 -8 9 3 5 1 12 -5 16 -15 9 -12 22 5 22 8 0 12 -4 9 -9z
m-244 -39 c0 -5 -4 -9 -8 -9 -5 0 -9 7 -9 15 0 8 4 12 9 9 4 -3 8 -9 8 -15z
m336 -39 c8 0 11 -6 7 -17 -5 -12 -3 -14 7 -8 10 6 12 4 7 -11 -7 -18 -7 -18
8 0 13 17 17 18 28 6 10 -10 9 -11 -2 -5 -9 5 -12 3 -9 -5 2 -7 18 -14 36 -15
18 -2 38 -8 45 -14 8 -6 31 -8 52 -6 21 3 36 2 32 -2 -4 -3 0 -17 8 -29 13
-20 13 -23 -3 -27 -12 -3 -11 -5 6 -6 26 -1 27 2 6 33 -10 16 -12 26 -4 31 5
3 13 -1 16 -10 5 -13 10 -12 28 8 17 19 25 21 39 13 12 -7 20 -8 25 -1 9 13
42 16 42 4 0 -8 -15 -13 -32 -10 -5 0 -8 -3 -8 -7 0 -4 -9 -8 -20 -9 -11 -1
-18 2 -15 8 4 5 2 9 -4 9 -20 0 -20 -18 -1 -35 23 -21 27 -44 5 -25 -14 11
-14 10 -7 -11 10 -27 6 -49 -10 -49 -6 0 -4 7 3 17 13 15 12 15 -8 3 -12 -8
-21 -16 -21 -19 2 -10 -15 -46 -25 -52 -5 -4 4 -10 22 -14 17 -3 31 -11 31
-16 0 -5 8 -9 18 -9 10 0 27 -7 38 -16 10 -8 14 -13 7 -10 -6 4 -15 2 -18 -4
-5 -8 -11 -7 -21 1 -15 12 -19 1 -6 -16 6 -9 26 -12 35 -5 10 8 37 6 34 -3 -4
-14 -86 -27 -93 -15 -3 5 -11 5 -17 1 -7 -5 -41 -7 -77 -6 -189 7 -330 7 -330
-1 0 -5 -6 -4 -12 2 -9 7 -19 5 -35 -8 -24 -19 -32 -37 -11 -24 7 4 8 3 4 -5
-6 -9 -11 -9 -21 -1 -9 8 -20 8 -30 2 -20 -11 -67 -4 -59 9 8 13 -10 11 -24
-3 -7 -7 -29 -13 -49 -14 -20 -2 -39 -6 -42 -11 -3 -4 -12 -9 -20 -11 -11 -2
-12 0 -3 11 10 12 5 13 -32 7 -24 -3 -54 -3 -67 2 -12 5 -28 7 -35 4 -7 -3
-14 10 -18 32 -10 63 -8 71 17 65 18 -4 19 -3 7 6 -13 9 -12 11 5 12 20 0 20
1 0 8 -16 6 -13 9 17 14 19 3 55 3 79 1 31 -3 50 0 64 11 11 9 14 14 8 10 -7
-3 -13 0 -14 7 0 10 -2 10 -6 1 -2 -7 -8 -13 -12 -13 -9 0 -6 43 4 59 9 15
-13 51 -30 51 -8 0 -15 4 -15 10 0 5 8 6 17 3 13 -5 15 -2 10 11 -5 14 -3 17
8 13 8 -4 17 -2 20 3 4 6 -1 10 -9 10 -9 0 -16 4 -16 10 0 6 23 8 55 5 39 -2
53 0 49 7 -5 8 -1 9 10 5 12 -5 24 1 37 15 11 13 19 19 18 13 -3 -20 1 -26 12
-20 7 5 5 15 -6 32 -16 24 -16 24 7 10 21 -13 53 -14 164 -5 17 2 31 9 32 16
1 6 3 19 4 27 1 10 8 8 26 -10 14 -14 31 -25 38 -25z m-449 34 c-3 -3 -12 -4
-19 -1 -8 3 -5 6 6 6 11 1 17 -2 13 -5z m57 -5 c-6 -11 -31 -12 -37 -1 -3 4 6
8 19 8 13 1 21 -2 18 -7z m66 -19 c0 -5 -2 -10 -4 -10 -3 0 -8 5 -11 10 -3 6
-1 10 4 10 6 0 11 -4 11 -10z m-105 -10 c-3 -5 -11 -10 -16 -10 -6 0 -7 5 -4
10 3 6 11 10 16 10 6 0 7 -4 4 -10z m-185 -21 c0 -5 -4 -9 -10 -9 -5 0 -10 7
-10 16 0 8 5 12 10 9 6 -3 10 -10 10 -16z m87 -21 c-3 -8 -6 -5 -6 6 -1 11 2
17 5 13 3 -3 4 -12 1 -19z m683 11 c0 -5 7 -6 15 -3 8 4 15 1 15 -5 0 -6 -7
-11 -15 -11 -8 0 -15 -4 -15 -10 0 -5 -5 -10 -11 -10 -5 0 -7 5 -4 10 3 6 -3
10 -14 10 -23 0 -29 16 -8 23 19 6 37 4 37 -4z m205 -7 c-3 -3 -11 0 -18 7 -9
10 -8 11 6 5 10 -3 15 -9 12 -12z m-3708 2 c17 -5 19 -9 10 -18 -14 -16 -57
-8 -57 10 0 15 12 17 47 8z m513 2 c0 -3 -4 -8 -10 -11 -5 -3 -10 -1 -10 4 0
6 5 11 10 11 6 0 10 -2 10 -4z m2237 -18 c-3 -8 -6 -5 -6 6 -1 11 2 17 5 13 3
-3 4 -12 1 -19z m53 12 c0 -5 -4 -10 -10 -10 -5 0 -10 5 -10 10 0 6 5 10 10
10 6 0 10 -4 10 -10z m815 0 c3 -5 -3 -10 -15 -10 -12 0 -18 5 -15 10 3 6 10
10 15 10 5 0 12 -4 15 -10z m-885 -15 c0 -8 9 -15 21 -15 12 0 17 -4 14 -11
-4 -6 -13 -8 -20 -5 -8 3 -16 0 -18 -7 -2 -7 -6 3 -9 21 -2 17 -1 32 4 32 4 0
8 -7 8 -15z m150 -25 c0 -5 -5 -10 -11 -10 -5 0 -7 5 -4 10 3 6 8 10 11 10 2
0 4 -4 4 -10z m-30 -12 c0 -4 -4 -8 -9 -8 -6 0 -12 4 -15 8 -3 5 1 9 9 9 8 0
15 -4 15 -9z m835 -29 c-5 -15 -4 -19 4 -15 6 4 11 3 11 -3 0 -12 -19 -25 -27
-17 -6 6 5 56 13 56 3 0 2 -10 -1 -21z m108 -13 c3 4 5 -3 4 -14 -1 -24 -12
-20 -29 11 -10 19 -9 20 4 10 8 -7 18 -10 21 -7z m-37 -19 c1 -7 -9 -13 -22
-13 -23 0 -24 11 -1 11 7 1 11 7 9 15 -2 8 0 11 4 7 4 -4 9 -13 10 -20z
m-4436 -11 c0 -3 -4 -8 -10 -11 -5 -3 -10 -1 -10 4 0 6 5 11 10 11 6 0 10 -2
10 -4z m3417 -43 c-3 -10 -5 -4 -5 12 0 17 2 24 5 18 2 -7 2 -21 0 -30z m1083
22 c0 -7 -30 -13 -34 -7 -3 4 4 9 15 9 10 1 19 0 19 -2z m-145 -39 c22 3 35 1
35 -5 0 -6 5 -11 11 -11 5 0 7 5 4 10 -3 6 -1 10 5 10 6 0 8 5 5 10 -8 13 5
13 25 0 13 -8 13 -10 -1 -10 -9 0 -20 -7 -23 -16 -4 -12 -2 -15 9 -10 8 3 25
1 37 -3 17 -7 9 -9 -29 -7 -29 2 -55 1 -58 -2 -11 -11 -34 -10 -32 1 1 6 -10
11 -25 11 -14 1 -30 5 -35 10 -5 5 -3 6 5 2 8 -5 12 0 12 16 1 20 2 21 11 6 7
-14 18 -16 44 -12z m-928 -48 c-3 -8 -6 -5 -6 6 -1 11 2 17 5 13 3 -3 4 -12 1
-19z m1023 -14 c0 -8 -4 -13 -9 -10 -5 4 -11 0 -14 -6 -2 -7 -8 -10 -12 -5 -5
4 0 14 11 22 24 18 24 18 24 -1z m-2980 -4 c0 -5 -2 -10 -4 -10 -3 0 -8 5 -11
10 -3 6 -1 10 4 10 6 0 11 -4 11 -10z m-1273 -56 c2 -7 -10 -14 -27 -16 -17
-3 -30 0 -30 6 0 6 -7 3 -14 -6 -7 -10 -23 -18 -35 -18 -11 0 -21 -4 -21 -8 0
-14 -51 -12 -72 2 -18 13 -17 14 19 14 21 -1 63 9 93 20 58 23 81 24 87 6z
m4638 4 c4 -3 -13 -6 -37 -6 -23 -1 -57 -3 -75 -6 -24 -5 -31 -3 -28 6 6 14
127 19 140 6z m-170 -24 c-9 -7 -24 -10 -32 -7 -8 3 -19 0 -24 -8 -7 -12 -9
-11 -9 2 0 23 9 28 48 27 30 -1 33 -3 17 -14z m-418 -9 c0 -8 -4 -12 -9 -9 -4
3 -8 9 -8 15 0 5 4 9 8 9 5 0 9 -7 9 -15z m637 6 c-9 -9 -34 -9 -34 -1 0 5 9
8 20 7 10 -1 17 -3 14 -6z m-687 -14 c13 -2 26 -7 30 -12 5 -4 2 -5 -6 0 -10
5 -12 4 -7 -3 9 -15 46 2 47 21 0 8 2 9 5 1 3 -7 14 -10 24 -7 15 4 20 0 21
-13 0 -18 1 -18 10 1 l9 20 -3 -20 c-2 -12 -10 -19 -20 -19 -14 2 -15 -1 -6
-12 10 -13 6 -14 -24 -11 -20 2 -38 -1 -40 -6 -2 -6 -34 -12 -71 -13 -37 -1
-69 -4 -72 -7 -3 -3 -13 -3 -22 0 -11 5 -13 3 -7 -7 6 -10 4 -12 -8 -7 -10 4
-17 1 -17 -6 0 -16 -66 -42 -98 -40 -21 2 -22 0 -11 -15 13 -16 12 -16 -6 -1
-14 12 -33 15 -62 12 -26 -2 -43 0 -43 6 0 6 -7 11 -16 11 -14 0 -14 3 -4 15
7 8 20 15 29 15 34 0 -13 20 -49 20 -19 0 -42 5 -50 10 -11 7 4 10 50 11 201
3 334 15 325 30 -4 5 -10 7 -15 4 -5 -3 -21 0 -37 7 l-28 11 35 6 c33 6 84 5
137 -2z m577 -3 c3 -8 2 -12 -4 -9 -6 3 -10 10 -10 16 0 14 7 11 14 -7z m-419
-14 c3 -5 1 -10 -4 -10 -6 0 -11 5 -11 10 0 6 2 10 4 10 3 0 8 -4 11 -10z m72
-6 c-3 -3 -12 -4 -19 -1 -8 3 -5 6 6 6 11 1 17 -2 13 -5z m130 -30 c-3 -3 -12
-4 -19 -1 -8 3 -5 6 6 6 11 1 17 -2 13 -5z m-40 -36 c0 -27 -20 -44 -39 -32
-6 4 -14 0 -19 -7 -6 -10 -8 -6 -5 11 3 14 5 29 5 33 1 5 6 5 11 2 6 -3 10 0
10 7 0 8 8 14 18 14 14 0 19 -8 19 -28z m-3840 -25 c-3 -10 -5 -2 -5 17 0 19
2 27 5 18 2 -10 2 -26 0 -35z m3868 7 c3 -5 1 -10 -4 -10 -6 0 -11 5 -11 10 0
6 2 10 4 10 3 0 8 -4 11 -10z m135 -5 c0 -9 -6 -12 -16 -8 -13 5 -13 7 -2 14
17 11 18 11 18 -6z m-420 -15 c-20 -13 -33 -13 -25 0 3 6 14 10 23 10 15 0 15
-2 2 -10z m157 4 c-3 -3 -12 -4 -19 -1 -8 3 -5 6 6 6 11 1 17 -2 13 -5z m-697
-8 c0 -11 -19 -15 -25 -6 -3 5 1 10 9 10 9 0 16 -2 16 -4z m5 -56 c3 -6 -4 -9
-19 -8 -13 1 -22 6 -20 10 7 11 32 10 39 -2z m-3543 -28 c4 -4 -33 -8 -83 -9
-49 -2 -98 -7 -109 -13 -13 -7 -21 -7 -25 1 -4 6 -13 8 -19 6 -7 -3 -19 -1
-26 3 -13 8 -9 10 52 23 20 5 204 -6 210 -11z m3413 -22 c3 -5 1 -10 -4 -10
-6 0 -11 5 -11 10 0 6 2 10 4 10 3 0 8 -4 11 -10z m371 -13 c4 -4 -23 -7 -60
-7 -48 0 -65 -3 -60 -12 4 -7 3 -8 -4 -4 -22 14 -12 25 26 28 58 5 90 3 98 -5z
m-4222 -9 c-3 -4 -9 -8 -15 -8 -5 0 -9 4 -9 8 0 5 7 9 15 9 8 0 12 -4 9 -9z
m586 -12 c0 -2 -7 -7 -16 -10 -8 -3 -12 -2 -9 4 6 10 25 14 25 6z m270 -4 c-6
-2 -7 -9 -4 -14 4 -7 2 -8 -4 -4 -7 4 -12 3 -12 -3 0 -14 -39 -24 -53 -13 -19
15 -67 24 -67 12 0 -5 -23 -10 -52 -10 -61 0 -61 8 0 11 23 2 42 7 42 12 0 5
-7 7 -15 4 -8 -4 -17 -2 -20 2 -2 5 40 8 95 7 55 0 95 -3 90 -4z m57 -14 c-3
-8 -6 -5 -6 6 -1 11 2 17 5 13 3 -3 4 -12 1 -19z m2834 0 c-13 -5 -21 -11 -18
-14 9 -10 107 -12 107 -2 0 4 14 7 30 6 38 -3 39 -16 3 -24 -16 -3 -38 -9 -50
-14 -13 -6 -25 -6 -28 0 -3 5 -19 5 -38 -1 -17 -5 -33 -9 -34 -9 -2 0 -3 17
-3 39 0 36 1 38 27 33 l27 -5 -23 -9z m56 -4 c-3 -3 -12 -4 -19 -1 -8 3 -5 6
6 6 11 1 17 -2 13 -5z m-3290 -32 c-19 -18 -67 -23 -67 -6 0 15 14 20 52 20
25 0 27 -2 15 -14z m399 -66 c-6 -32 -11 -37 -46 -42 -22 -4 -40 -10 -40 -15
0 -5 -4 -9 -9 -9 -5 0 -4 15 2 35 6 19 16 35 24 35 7 0 16 7 19 15 4 8 10 12
15 9 5 -3 12 2 15 11 12 29 27 -1 20 -39z m3234 23 c0 -5 -20 -9 -45 -9 -49 0
-57 6 -23 19 25 9 68 3 68 -10z m-3391 -10 c-12 -23 -1 -49 21 -49 14 0 18 -7
15 -25 -1 -14 2 -28 6 -31 5 -3 9 -1 9 4 0 13 33 10 42 -3 5 -7 14 -6 28 3 17
11 20 10 20 -7 0 -14 -5 -18 -19 -14 -10 3 -30 -1 -42 -8 -29 -15 -65 -18 -82
-6 -9 7 -9 10 1 14 19 8 14 41 -8 48 -19 6 -41 4 -135 -12 -16 -2 -51 -8 -76
-12 -25 -4 -57 -3 -70 2 l-24 9 28 9 c16 4 35 5 43 2 9 -3 14 0 12 8 -3 14 0
15 99 20 65 3 85 14 61 33 -16 12 -15 14 15 23 49 15 67 12 56 -8z m4040 -33
c0 -6 -3 -5 -6 3 -5 11 -7 11 -15 0 -6 -10 -7 -7 -3 10 5 17 4 22 -5 16 -9 -6
-11 -4 -5 5 6 10 11 9 22 -5 7 -11 13 -24 12 -29z m-64 24 c3 -5 -1 -10 -10
-10 -9 0 -13 5 -10 10 3 6 8 10 10 10 2 0 7 -4 10 -10z m-967 -12 c9 -9 7 -14
-6 -24 -25 -19 -32 -17 -32 11 0 26 18 33 38 13z m927 -9 c0 -8 -10 -15 -22
-17 -12 -2 -25 -11 -28 -21 -3 -12 -16 -18 -35 -19 -21 0 -28 3 -23 11 4 7 0
6 -10 -2 -23 -18 -21 -2 3 27 10 13 32 25 47 28 15 3 29 7 31 9 9 8 37 -3 37
-16z m130 11 c-3 -5 -1 -10 4 -10 6 0 11 -5 11 -11 0 -8 -5 -8 -15 1 -13 11
-12 30 1 30 3 0 2 -4 -1 -10z m-604 -17 c0 -11 3 -13 6 -5 5 13 23 7 23 -9 0
-12 -87 -12 -95 1 -6 10 6 14 39 10 11 -1 15 3 12 9 -4 6 -2 11 3 11 6 0 11
-8 12 -17z m674 -22 c-6 -5 -25 10 -25 20 0 5 6 4 14 -3 8 -7 12 -15 11 -17z
m35 9 c0 -5 -5 -10 -11 -10 -5 0 -7 5 -4 10 3 6 8 10 11 10 2 0 4 -4 4 -10z
m20 -47 c0 -15 -6 -15 -35 -4 -12 5 -26 4 -35 -3 -13 -9 -13 -9 -2 6 16 20 72
21 72 1z m-703 -15 c-3 -8 -6 -5 -6 6 -1 11 2 17 5 13 3 -3 4 -12 1 -19z m538
13 c-3 -5 -1 -12 5 -16 5 -3 10 1 10 11 0 12 6 15 23 10 12 -3 26 -6 30 -6 12
0 -3 -63 -16 -72 -20 -13 -30 5 -11 19 16 12 17 15 4 23 -12 8 -11 10 5 10 16
0 17 2 5 10 -15 9 -33 -7 -24 -22 3 -5 -2 -15 -10 -24 -9 -9 -14 -19 -11 -24
3 -4 -1 -8 -8 -7 -35 1 -47 -5 -47 -23 0 -21 -15 -27 -25 -10 -3 6 -1 10 6 10
8 0 8 4 -1 15 -9 11 -10 15 0 15 8 0 9 10 5 31 -5 22 -4 29 4 25 6 -4 11 -3
11 1 0 5 10 13 23 19 30 15 29 15 22 5z m-635 -21 c-13 -9 -13 -10 0 -10 13 0
13 -1 0 -10 -8 -5 -42 -9 -75 -9 -57 1 -58 2 -25 11 19 5 44 14 55 18 11 5 29
9 40 9 17 1 17 -1 5 -9z m727 -52 c-3 -7 -5 -2 -5 12 0 14 2 19 5 13 2 -7 2
-19 0 -25z m-606 -8 c6 0 8 -4 4 -9 -6 -10 17 -8 46 4 10 3 20 2 24 -4 4 -8
12 -8 25 -1 13 7 21 7 25 0 4 -6 11 -7 17 -4 6 4 17 -1 25 -11 7 -11 13 -13
13 -7 0 7 5 12 11 12 5 0 7 -4 4 -10 -12 -19 31 -10 48 10 14 17 21 19 38 9
17 -9 20 -8 14 2 -6 9 -4 11 7 6 9 -3 19 -3 23 1 13 13 57 9 63 -6 5 -13 6
-13 12 2 6 18 7 18 24 1 15 -16 15 -19 1 -34 -8 -10 -15 -22 -15 -27 0 -5 5
-1 11 9 8 14 14 16 25 6 7 -6 21 -9 29 -5 11 4 15 -1 15 -17 0 -17 2 -19 10
-7 9 14 12 14 79 -19 8 -4 16 -13 17 -19 1 -7 0 -8 -3 -2 -8 17 -36 12 -29 -6
3 -8 2 -12 -4 -9 -6 3 -10 2 -10 -3 0 -10 -77 1 -88 13 -4 4 3 4 15 1 12 -4
24 -2 28 4 4 6 1 9 -6 8 -7 -2 -18 8 -25 22 -11 21 -14 22 -20 7 -7 -20 -34
-23 -34 -4 0 7 -7 4 -15 -7 -8 -11 -15 -14 -15 -8 0 7 -5 12 -11 12 -8 0 -7
-5 2 -16 7 -8 21 -13 30 -11 20 5 33 -7 43 -40 6 -20 4 -23 -18 -23 -14 0 -26
-5 -26 -11 0 -7 12 -10 29 -7 17 2 29 0 28 -5 -1 -5 4 -12 11 -14 11 -4 12 -1
3 15 -6 11 -11 29 -11 39 0 15 2 16 10 3 5 -8 10 -10 11 -5 0 6 4 1 9 -10 7
-15 9 -16 9 -4 1 11 10 16 29 17 48 0 53 2 46 14 -4 7 -3 8 5 4 6 -4 9 -16 6
-26 -5 -14 -1 -17 22 -13 22 4 25 2 13 -6 -8 -6 -37 -11 -65 -12 -29 -1 -39
-4 -22 -6 15 -2 27 -8 27 -12 0 -4 -12 -14 -27 -22 -37 -19 -54 -35 -45 -44 4
-5 1 -5 -5 -1 -8 4 -13 2 -13 -5 0 -7 -9 -2 -19 10 -11 12 -34 26 -53 31 l-33
10 25 -20 c24 -20 25 -21 6 -35 -20 -15 -20 -15 0 -15 11 0 26 6 33 13 11 9
13 9 7 0 -5 -9 0 -13 13 -13 30 0 36 -20 7 -21 -14 -1 -35 -3 -46 -4 -11 -1
-28 -3 -37 -4 -16 -1 -16 -3 -3 -11 13 -8 12 -10 -5 -11 -11 -1 -26 -1 -32 0
-7 1 -13 -3 -13 -9 0 -6 -5 -8 -11 -5 -6 4 -8 12 -6 19 3 8 -9 11 -37 11 -22
0 -47 3 -53 8 -8 6 -13 5 -13 -2 0 -11 13 -15 36 -12 7 1 14 -5 17 -12 4 -12
-3 -12 -40 -5 -41 9 -76 2 -44 -10 11 -4 11 -6 0 -14 -9 -6 1 -8 31 -6 38 2
46 0 46 -14 0 -10 -6 -18 -13 -18 -6 0 -14 -4 -17 -8 -3 -5 31 -7 74 -4 59 3
80 1 80 -8 0 -7 -9 -10 -22 -7 -13 2 -34 1 -48 -2 l-25 -7 30 -8 c17 -4 40
-17 52 -28 12 -12 27 -17 34 -13 8 6 10 4 5 -4 -5 -7 -14 -10 -21 -7 -7 2 -16
-1 -18 -8 -9 -22 47 -13 60 9 9 15 13 16 14 5 1 -8 1 -18 0 -22 0 -4 7 -4 16
-1 11 4 13 8 5 11 -21 7 -13 20 8 15 14 -4 19 -11 15 -23 -3 -10 -1 -21 4 -25
6 -3 8 0 5 8 -3 8 2 14 11 14 19 0 19 -7 0 -35 -13 -17 -13 -21 -2 -16 8 3 20
-2 27 -10 7 -9 16 -14 20 -11 23 14 67 10 85 -7 11 -11 16 -19 10 -18 -22 5
-36 -1 -30 -10 4 -6 16 -8 28 -5 20 5 20 5 4 -6 -10 -6 -34 -9 -53 -7 -19 2
-34 0 -34 -4 0 -4 -5 -8 -11 -8 -5 0 -7 5 -4 10 3 6 0 10 -7 10 -7 0 -24 3
-38 6 -20 4 -22 3 -10 -5 8 -6 10 -11 4 -11 -6 0 -14 3 -18 8 -4 4 -20 8 -34
8 -51 3 -53 4 -46 17 4 6 4 9 -1 5 -4 -4 -16 -3 -26 3 -29 15 -194 12 -289 -5
-47 -9 -97 -16 -112 -16 -16 0 -28 -5 -28 -12 0 -6 -3 -9 -6 -5 -4 3 -18 0
-33 -7 -14 -7 -56 -17 -92 -20 -54 -6 -67 -5 -72 8 -5 12 -23 14 -90 12 -46
-2 -89 -6 -94 -9 -14 -9 -20 27 -29 159 l-7 110 57 14 c31 7 56 16 56 19 -1
17 -19 29 -54 35 -79 15 34 50 136 42 38 -3 70 -1 73 5 4 5 11 6 17 3 6 -4 9
-1 6 7 -3 8 -14 15 -26 17 -12 2 -20 7 -17 12 3 5 -3 9 -12 9 -10 1 -31 3 -48
5 -16 2 -37 4 -45 5 -8 1 0 8 19 16 18 8 37 12 43 9 5 -3 28 -8 50 -10 33 -3
39 -1 34 12 -3 8 -2 12 4 9 6 -3 10 -1 10 4 0 6 3 10 8 10 29 -5 92 3 92 11 0
5 -18 13 -40 16 -45 7 -44 24 1 24 29 0 39 13 19 25 -8 5 -7 12 2 23 8 10 9
13 1 9 -6 -4 -14 -3 -18 3 -4 6 -11 8 -16 5 -5 -4 -9 1 -9 9 0 9 5 16 10 16
18 0 25 2 45 13 11 6 23 10 28 9 4 -1 7 3 7 9 0 6 -7 9 -15 5 -8 -3 -15 -1
-15 4 0 10 38 19 58 14 8 -2 18 -4 23 -4z m-266 -10 l-30 -7 30 -7 c48 -12 51
-14 25 -16 -14 -1 -34 -4 -45 -6 -11 -2 -27 -5 -36 -6 -8 -1 -21 -8 -28 -16
-11 -11 -6 -13 30 -8 24 3 54 7 67 10 13 3 20 1 17 -5 -4 -5 -15 -9 -26 -9
-10 0 -19 -4 -19 -10 0 -5 -15 -10 -34 -10 -19 0 -38 -4 -41 -10 -4 -6 -15 -4
-29 5 -12 8 -26 12 -29 8 -4 -3 -7 -1 -7 5 0 17 -42 15 -66 -2 -19 -14 -19
-15 0 -22 19 -7 19 -8 0 -15 -16 -6 -15 -8 9 -8 15 -1 27 -5 27 -10 0 -5 17
-9 37 -9 37 0 37 0 13 14 l-25 13 30 1 c34 1 113 21 133 33 8 5 12 3 12 -8 0
-9 5 -13 10 -10 6 4 8 10 6 13 -2 4 8 7 22 6 15 -1 43 -3 62 -3 79 -3 -46 -33
-137 -33 -13 0 -23 -5 -23 -10 0 -5 -6 -8 -12 -7 -31 4 -46 -2 -44 -18 1 -12
-14 -20 -59 -32 -33 -9 -63 -20 -67 -25 -10 -15 -16 9 -22 94 -3 41 -2 69 3
62 7 -11 9 -11 14 1 4 10 19 15 44 14 43 -1 153 31 153 44 0 5 15 8 33 8 l32
-1 -30 -8z m936 -8 c-7 -2 -18 1 -23 6 -8 8 -4 9 13 5 13 -4 18 -8 10 -11z
m-54 -13 c3 -11 11 -18 18 -15 7 2 21 -1 30 -8 16 -12 16 -13 -6 -10 -13 1
-30 3 -36 3 -7 1 -13 10 -13 22 0 15 -5 19 -16 15 -8 -3 -12 -2 -9 4 10 17 27
11 32 -11z m-4003 -47 c-4 -4 -9 -1 -11 6 -3 6 -19 12 -36 13 l-32 1 38 10
c20 6 38 15 38 21 1 7 4 -1 6 -16 3 -16 1 -32 -3 -35z m3956 28 c0 -5 -5 -10
-11 -10 -5 0 -7 5 -4 10 3 6 8 10 11 10 2 0 4 -4 4 -10z m140 -14 c0 -3 -4 -8
-10 -11 -5 -3 -10 -1 -10 4 0 6 5 11 10 11 6 0 10 -2 10 -4z m-4267 -43 c-7
-2 -19 -2 -25 0 -7 3 -2 5 12 5 14 0 19 -2 13 -5z m118 -14 c-14 -6 -28 -6
-33 -1 -5 5 5 9 24 10 31 0 31 -1 9 -9z m4089 7 c0 -2 -9 -6 -20 -9 -11 -3
-18 -1 -14 4 5 9 34 13 34 5z m-5 -36 c3 -5 -1 -10 -10 -10 -9 0 -13 5 -10 10
3 6 8 10 10 10 2 0 7 -4 10 -10z m-870 -20 c-11 -5 -14 -9 -7 -9 6 -1 12 -9
12 -18 0 -13 -3 -15 -8 -5 -5 7 -17 12 -28 11 -34 -4 -54 1 -54 12 0 5 5 7 10
4 6 -3 10 -3 10 2 0 4 19 9 43 10 31 2 37 0 22 -7z m-100 -10 c3 -6 -1 -7 -9
-4 -18 7 -21 14 -7 14 6 0 13 -4 16 -10z m-3065 -22 c0 -27 -10 -42 -28 -46
-43 -9 -69 -7 -80 4 -10 11 -2 17 38 31 27 10 50 21 50 25 0 5 5 8 10 8 6 0
10 -10 10 -22z m-371 -2 c-11 -9 -69 -15 -64 -6 3 6 20 10 37 10 17 0 29 -2
27 -4z m4461 -16 c0 5 7 7 15 4 12 -5 13 -10 4 -20 -9 -11 -8 -14 5 -14 10 0
16 9 16 23 1 20 1 21 11 4 14 -23 -18 -52 -38 -35 -7 6 -22 8 -33 5 -11 -3
-18 -1 -14 4 3 5 -2 9 -10 9 -9 0 -16 6 -16 14 0 11 7 13 30 6 17 -5 30 -5 30
0z m-4345 -40 c-3 -5 -12 -10 -18 -10 -7 0 -6 4 3 10 19 12 23 12 15 0z m4280
-17 c-11 -7 -25 -11 -32 -9 -6 3 -14 0 -16 -7 -2 -7 -8 -9 -12 -5 -14 13 13
33 46 34 30 1 31 0 14 -13z m-75 -14 c0 -13 -17 -20 -34 -13 -24 9 -19 22 9
22 14 0 25 -4 25 -9z m76 -30 c3 -6 1 -16 -6 -22 -10 -9 -11 -9 -6 0 5 9 -2 9
-26 2 -41 -11 -41 -11 -32 2 5 8 1 8 -14 0 -15 -8 -23 -8 -28 1 -5 7 -3 8 6 3
9 -5 11 -4 6 4 -6 9 -11 9 -22 0 -13 -10 -12 -15 3 -32 17 -20 17 -20 0 -14
-15 6 -16 4 -7 -13 6 -11 17 -20 25 -20 7 0 17 -5 21 -12 4 -7 3 -8 -5 -4 -6
4 -18 2 -26 -4 -8 -7 -15 -9 -15 -5 0 4 -6 2 -14 -4 -12 -10 -14 -8 -10 11 5
21 4 21 -6 4 -10 -15 -14 -16 -21 -5 -5 8 -9 19 -9 24 0 6 4 4 9 -3 7 -11 9
-11 14 1 3 9 -1 21 -9 27 -21 18 -17 29 12 40 14 6 23 14 20 18 -3 5 26 10 64
10 39 1 72 -3 76 -9z m-4240 -14 c28 -14 26 -15 -51 -15 -44 0 -87 5 -95 11
-12 8 -11 9 5 5 11 -3 27 -1 35 4 22 14 74 12 106 -5z m-586 -6 c0 -4 -9 -7
-19 -6 -11 0 -18 4 -16 7 6 9 35 8 35 -1z m4800 -19 c0 -5 -2 -10 -4 -10 -3 0
-8 5 -11 10 -3 6 -1 10 4 10 6 0 11 -4 11 -10z m-220 -14 c0 -2 -7 -6 -15 -10
-8 -3 -15 -1 -15 4 0 6 7 10 15 10 8 0 15 -2 15 -4z m-1540 -16 c0 -5 -8 -10
-17 -10 -15 0 -16 2 -3 10 19 12 20 12 20 0z m1461 -8 c-7 -2 -18 1 -23 6 -8
8 -4 9 13 5 13 -4 18 -8 10 -11z m244 8 c3 -5 -1 -10 -10 -10 -9 0 -13 5 -10
10 3 6 8 10 10 10 2 0 7 -4 10 -10z m69 -2 c-3 -4 -9 -8 -15 -8 -5 0 -9 4 -9
8 0 5 7 9 15 9 8 0 12 -4 9 -9z m-4254 -7 c0 -15 -22 -18 -58 -10 -18 4 -86 5
-150 3 -66 -3 -129 -1 -142 5 -18 7 29 10 163 10 107 1 187 -3 187 -8z m2440
5 c0 -2 -7 -7 -16 -10 -8 -3 -12 -2 -9 4 6 10 25 14 25 6z m-2347 -48 c38 1
73 4 78 8 5 3 9 0 9 -6 0 -7 7 -10 15 -6 10 3 15 -1 15 -12 0 -15 -10 -17 -70
-16 -38 1 -76 6 -83 12 -7 6 -31 9 -52 7 -64 -6 -126 -6 -182 1 -48 6 -130 -2
-121 -11 2 -3 21 -6 42 -9 84 -10 40 -15 -118 -13 -91 2 -166 0 -166 -5 0 -10
-54 -11 -64 -1 -3 4 4 13 16 20 13 7 17 12 10 13 -7 0 -10 5 -7 10 4 6 44 10
93 10 197 -1 461 6 468 12 3 4 16 2 28 -4 11 -6 52 -11 89 -10z m3982 -7 c-3
-5 -1 -12 5 -16 5 -3 10 0 10 7 0 9 2 10 8 2 8 -14 54 -13 65 1 5 6 5 -1 1
-15 -6 -21 -5 -23 8 -13 8 7 18 10 21 6 4 -3 7 -1 7 6 0 7 5 9 10 6 6 -3 10
-1 10 5 0 8 6 7 21 -1 15 -8 18 -14 10 -22 -18 -18 -13 -28 14 -23 30 6 34 -9
5 -17 -14 -4 -25 2 -36 18 -16 25 -54 24 -54 -2 0 -10 6 -12 19 -8 11 3 23 0
27 -7 4 -7 4 -10 -1 -6 -5 5 -14 -1 -22 -12 -17 -23 -43 -27 -43 -5 0 8 5 15
10 15 7 0 8 6 2 17 -6 10 -26 18 -53 20 -24 2 -47 9 -51 16 -11 17 -10 37 3
37 5 0 8 -4 4 -9z m203 -9 c2 -7 -2 -10 -12 -6 -9 3 -16 11 -16 16 0 13 23 5
28 -10z m-4293 -22 c18 -1 17 -3 -5 -12 -40 -17 -153 -18 -168 -1 -11 11 -6
13 33 10 25 -2 48 -1 50 2 3 5 26 6 90 1z m4326 -17 c13 -16 12 -17 -3 -5 -9
8 -22 11 -28 7 -5 -3 -10 -1 -10 4 0 17 26 13 41 -6z m-4741 -14 c0 -5 -4 -9
-10 -9 -5 0 -10 7 -10 16 0 8 5 12 10 9 6 -3 10 -10 10 -16z m4674 -36 c4 -4
23 -6 42 -4 27 2 34 -1 35 -16 0 -16 1 -16 9 2 6 13 9 15 9 5 1 -12 3 -12 10
-2 7 11 9 11 14 0 3 -8 0 -15 -6 -16 -7 0 -25 -3 -40 -7 -20 -4 -26 -2 -22 5
5 7 0 11 -11 9 -11 -2 -29 2 -41 9 -18 10 -23 10 -23 1 0 -7 -3 -10 -6 -6 -7
7 4 27 15 27 4 0 11 -3 15 -7z m-34 -32 c11 -1 11 -4 2 -13 -10 -10 -15 -10
-22 2 -8 13 -10 12 -10 -4 0 -15 -3 -16 -15 -6 -21 18 -19 28 8 25 12 -1 29
-3 37 -4z m-4180 -11 c0 -5 -12 -10 -26 -10 -14 0 -23 4 -19 10 3 6 15 10 26
10 10 0 19 -4 19 -10z m-306 -22 c-4 -6 -28 -8 -58 -4 -28 3 -52 6 -54 6 -2 0
-1 3 1 8 3 4 30 5 61 4 34 -3 54 -8 50 -14z m208 -6 c9 -9 7 -12 -11 -12 -12
0 -19 -4 -16 -10 3 -5 15 -10 26 -10 10 0 19 -5 19 -11 0 -7 -7 -8 -17 -4 -10
4 -25 8 -33 9 -8 0 -18 4 -21 8 -6 9 -89 -21 -89 -31 0 -9 -40 -7 -61 3 -9 4
-27 6 -40 5 -13 -1 -46 -1 -74 0 -96 3 -4 26 142 34 37 2 70 26 38 28 -16 1
-15 3 5 8 32 9 117 -2 132 -17z m-499 -9 c-7 -2 -19 -2 -25 0 -7 3 -2 5 12 5
14 0 19 -2 13 -5z m4964 0 c-9 -3 -15 -8 -13 -12 3 -4 -6 -8 -20 -9 -13 -1
-24 4 -24 11 0 7 15 12 38 13 20 1 29 -1 19 -3z m-433 -53 c5 -5 1 -7 -10 -5
-11 2 -46 4 -79 5 -45 1 -55 4 -40 10 23 11 115 3 129 -10z m133 4 c-3 -3 -12
-4 -19 -1 -8 3 -5 6 6 6 11 1 17 -2 13 -5z m-2262 -33 c-3 -6 -11 -11 -17 -11
-6 0 -6 6 2 15 14 17 26 13 15 -4z m1520 9 c4 -7 -3 -9 -20 -6 -37 7 -44 16
-12 16 14 0 29 -5 32 -10z m-100 -21 c-11 -4 -30 -8 -42 -8 -13 -1 -23 -7 -23
-13 0 -7 -5 -5 -11 5 -15 26 -5 33 48 28 36 -3 43 -6 28 -12z m299 0 c21 -10
23 -14 10 -26 -8 -8 -28 -13 -48 -11 -30 3 -33 5 -25 26 9 25 26 28 63 11z"/>
<path d="M53810 35015 c-11 -13 -10 -14 4 -9 9 3 16 10 16 15 0 13 -6 11 -20
-6z"/>
<path d="M3470 11330 c0 -22 -4 -40 -10 -40 -5 0 -10 -5 -10 -11 0 -5 4 -8 10
-4 5 3 11 -21 13 -57 2 -42 4 -27 5 45 1 59 0 107 -3 107 -3 0 -5 -18 -5 -40z"/>
<path d="M3471 11104 c0 -11 3 -14 6 -6 3 7 2 16 -1 19 -3 4 -6 -2 -5 -13z"/>
<path d="M3460 10936 c0 -24 -5 -36 -17 -39 -14 -4 -12 -5 5 -6 19 -1 22 4 22
39 0 22 -2 40 -5 40 -3 0 -5 -15 -5 -34z"/>
<path d="M27860 3910 c-8 -5 -16 -14 -16 -20 -1 -5 -2 -15 -3 -21 0 -5 -7 -7
-13 -3 -7 4 -10 4 -6 -1 4 -4 21 -9 37 -10 26 -2 28 -1 16 11 -15 15 -10 48 6
38 5 -3 9 0 9 5 0 13 -10 14 -30 1z"/>
<path d="M27929 3903 c-1 -5 -1 -12 0 -17 1 -5 -5 -6 -14 -2 -10 3 -15 2 -13
-5 2 -6 8 -10 13 -9 6 1 13 -9 17 -22 l6 -23 1 23 c1 12 8 25 16 28 23 9 18
26 -6 19 -15 -5 -19 -4 -15 4 4 6 5 11 2 11 -3 0 -7 -3 -7 -7z"/>
<path d="M27594 3889 c-4 -7 -3 -9 4 -5 5 3 13 0 15 -6 4 -9 6 -10 6 -1 1 17
-16 25 -25 12z"/>
<path d="M27665 3820 c3 -5 8 -10 11 -10 2 0 4 5 4 10 0 6 -5 10 -11 10 -5 0
-7 -4 -4 -10z"/>
<path d="M27736 3814 c-11 -8 -16 -14 -10 -14 13 0 39 18 34 24 -3 2 -14 -2
-24 -10z"/>
<path d="M27710 3780 c8 -5 24 -10 34 -10 26 0 18 6 -19 14 -22 5 -26 4 -15
-4z"/>
<path d="M27970 3779 c0 -5 5 -7 10 -4 6 3 10 8 10 11 0 2 -4 4 -10 4 -5 0
-10 -5 -10 -11z"/>
<path d="M27686 3754 c-9 -24 -2 -26 12 -4 7 11 8 20 3 20 -5 0 -12 -7 -15
-16z"/>
<path d="M27768 3763 c-10 -2 -18 -9 -18 -14 0 -6 8 -5 20 1 11 6 20 13 20 15
0 3 -1 4 -2 4 -2 -1 -11 -3 -20 -6z"/>
<path d="M27356 3721 c-4 -5 1 -8 9 -7 21 3 31 16 12 16 -9 0 -18 -4 -21 -9z"/>
<path d="M26794 3651 c5 -8 56 -3 56 5 0 2 -14 4 -31 4 -16 0 -28 -4 -25 -9z"/>
<path d="M27041 3600 c-9 -27 -8 -30 10 -30 14 0 19 7 19 24 0 37 -17 40 -29
6z"/>
<path d="M26688 2483 c6 -2 9 -10 6 -15 -4 -7 -2 -8 5 -4 13 9 5 26 -12 25 -9
0 -8 -2 1 -6z"/>
<path d="M26930 2001 c0 -6 -3 -10 -7 -10 -21 3 -45 -2 -39 -8 11 -11 56 -11
56 0 0 4 4 6 9 2 5 -3 13 0 17 7 4 7 4 10 -1 6 -4 -4 -14 -3 -22 3 -9 9 -13 8
-13 0z"/>
<path d="M26608 1983 c7 -3 16 -2 19 1 4 3 -2 6 -13 5 -11 0 -14 -3 -6 -6z"/>
<path d="M26615 1930 c-3 -5 -5 -10 -3 -11 33 -8 38 -7 27 7 -14 17 -16 17
-24 4z"/>
<path d="M26615 1850 c-3 -6 1 -7 9 -4 18 7 21 14 7 14 -6 0 -13 -4 -16 -10z"/>
<path d="M26640 1820 c0 -5 5 -10 11 -10 5 0 7 5 4 10 -3 6 -8 10 -11 10 -2 0
-4 -4 -4 -10z"/>
<path d="M29136 1935 c4 -8 8 -15 10 -15 2 0 4 7 4 15 0 8 -4 15 -10 15 -5 0
-7 -7 -4 -15z"/>
<path d="M29330 1912 c0 -5 7 -9 15 -9 8 0 12 4 9 9 -3 4 -9 8 -15 8 -5 0 -9
-4 -9 -8z"/>
<path d="M29074 1889 c-5 -9 53 -5 63 4 4 4 -8 6 -26 5 -18 -1 -34 -5 -37 -9z"/>
<path d="M29450 1885 c0 -8 5 -15 10 -15 6 0 10 7 10 15 0 8 -4 15 -10 15 -5
0 -10 -7 -10 -15z"/>
<path d="M29130 1851 c0 -5 11 -8 25 -7 33 1 33 16 0 16 -14 0 -25 -4 -25 -9z"/>
<path d="M29152 1810 c0 -14 2 -19 5 -12 2 6 2 18 0 25 -3 6 -5 1 -5 -13z"/>
<path d="M26145 1880 c3 -5 0 -10 -7 -10 -9 0 -9 -3 2 -10 8 -5 19 -5 24 0 10
10 0 30 -15 30 -6 0 -7 -4 -4 -10z"/>
<path d="M29440 1659 c0 -5 5 -7 10 -4 6 3 10 8 10 11 0 2 -4 4 -10 4 -5 0
-10 -5 -10 -11z"/>
<path d="M29362 1585 c7 -12 -12 -30 -31 -30 -8 0 -16 -7 -18 -15 -3 -10 -2
-11 4 -4 9 12 41 12 61 0 7 -4 12 -2 12 5 0 9 3 9 14 0 11 -9 15 -8 20 5 5 13
9 14 21 4 8 -7 15 -9 15 -5 0 4 7 2 15 -5 12 -10 15 -10 15 0 0 9 3 10 14 1
10 -9 15 -8 19 3 4 10 1 13 -9 9 -8 -3 -14 1 -14 8 0 12 -2 12 -9 0 -5 -7 -14
-10 -20 -7 -6 4 -9 12 -6 17 4 5 -9 7 -30 3 -25 -4 -35 -2 -30 5 3 6 1 11 -4
11 -6 0 -11 -5 -11 -11 0 -8 -6 -7 -17 2 -9 8 -14 10 -11 4z"/>
<path d="M29605 1570 c3 -5 8 -10 11 -10 2 0 4 5 4 10 0 6 -5 10 -11 10 -5 0
-7 -4 -4 -10z"/>
<path d="M29285 1560 c3 -5 8 -10 11 -10 2 0 4 5 4 10 0 6 -5 10 -11 10 -5 0
-7 -4 -4 -10z"/>
<path d="M29641 1563 c4 -25 -4 -30 -47 -27 -50 4 -56 -2 -11 -10 14 -2 30 -7
35 -10 12 -7 29 7 36 32 5 13 3 22 -3 22 -6 0 -10 -3 -10 -7z"/>
<path d="M29258 1543 c7 -3 16 -2 19 1 4 3 -2 6 -13 5 -11 0 -14 -3 -6 -6z"/>
<path d="M29682 1527 c10 -8 14 -18 10 -22 -4 -4 -1 -6 6 -4 21 7 16 22 -10
31 -21 7 -21 7 -6 -5z"/>
<path d="M29114 1518 c-3 -4 6 -8 20 -8 14 0 26 -6 26 -12 0 -9 3 -9 8 -2 4 6
15 13 24 17 12 4 15 2 11 -9 -7 -18 11 -18 26 0 10 12 7 15 -16 20 -38 8 -93
5 -99 -6z"/>
<path d="M29516 1502 c-3 -5 1 -9 9 -9 8 0 12 4 9 9 -3 4 -7 8 -9 8 -2 0 -6
-4 -9 -8z"/>
<path d="M29600 1474 c8 -10 15 -20 16 -22 1 -2 4 1 7 5 3 5 -4 15 -16 23 -21
12 -21 12 -7 -6z"/>
<path d="M29663 1460 c-11 -16 -10 -18 2 -14 8 4 15 12 15 20 0 19 -3 18 -17
-6z"/>
<path d="M29043 1438 c1 -6 -9 -15 -23 -19 -18 -6 -14 -7 15 -3 22 3 47 6 55
8 8 2 18 -2 22 -8 5 -8 8 -7 8 2 0 7 5 10 10 7 6 -3 10 -1 10 5 0 6 -10 11
-22 10 -13 -1 -25 -1 -28 0 -24 9 -50 8 -47 -2z"/>
<path d="M28881 1344 c0 -11 3 -14 6 -6 3 7 2 16 -1 19 -3 4 -6 -2 -5 -13z"/>
<path d="M29190 1356 c0 -2 11 -6 25 -8 13 -3 22 -1 19 3 -5 9 -44 13 -44 5z"/>
<path d="M29098 1333 c7 -3 16 -2 19 1 4 3 -2 6 -13 5 -11 0 -14 -3 -6 -6z"/>
<path d="M29816 733 c-11 -11 -7 -20 9 -20 8 0 15 4 15 8 0 11 -16 20 -24 12z"/>
<path d="M29266 531 c-3 -5 1 -11 9 -15 15 -6 29 7 18 18 -9 9 -21 8 -27 -3z"/>
<path d="M29576 523 c5 -5 12 -12 15 -16 3 -5 9 -2 12 7 5 12 0 16 -15 16 -12
0 -17 -3 -12 -7z"/>
<path d="M29540 505 c0 -9 6 -12 17 -8 11 4 14 3 9 -5 -4 -7 -16 -12 -27 -12
-13 0 -18 4 -13 12 4 6 3 8 -4 4 -5 -3 -12 -1 -14 5 -2 7 -8 7 -15 -3 -8 -10
-9 -18 -1 -28 8 -12 9 -12 4 3 -7 21 1 22 20 2 12 -11 20 -12 39 -3 28 13 33
33 9 42 -22 8 -24 8 -24 -9z"/>
<path d="M29003 353 c-14 -3 -21 -11 -20 -23 1 -10 5 -16 9 -14 4 3 8 0 8 -6
0 -6 5 -8 12 -4 7 4 23 9 36 10 37 4 39 14 3 14 -25 0 -32 4 -27 15 3 8 4 14
3 14 -1 -1 -12 -4 -24 -6z"/>
<path d="M29252 272 c-23 -7 2 -31 41 -38 53 -10 48 -8 77 -23 21 -10 31 -9
55 3 28 15 28 16 7 16 -13 0 -21 4 -18 8 3 5 -8 8 -24 7 -16 -1 -27 2 -24 7 5
8 -3 10 -43 11 -13 0 -23 3 -23 8 0 8 -27 8 -48 1z"/>
<path d="M29787 269 c7 -7 15 -10 18 -7 3 3 -2 9 -12 12 -14 6 -15 5 -6 -5z"/>
<path d="M29727 199 c7 -7 15 -10 18 -7 3 3 -2 9 -12 12 -14 6 -15 5 -6 -5z"/>
<path d="M29888 193 c7 -3 16 -2 19 1 4 3 -2 6 -13 5 -11 0 -14 -3 -6 -6z"/>
<path d="M30000 229 c0 -5 5 -7 10 -4 6 3 10 8 10 11 0 2 -4 4 -10 4 -5 0 -10
-5 -10 -11z"/>
</g>
</svg>
